<?xml version="1.0" standalone="no"?>
<!DOCTYPE svg PUBLIC "-//W3C//DTD SVG 1.1//EN" "http://www.w3.org/Graphics/SVG/1.1/DTD/svg11.dtd" >
<svg xmlns="http://www.w3.org/2000/svg">
<metadata>
This is a custom SVG webfont generated by Font Squirrel.
Copyright   : 2005 by Deutsche Bahn AG
Foundry URL : wwwurwppde
</metadata>
<defs>
<font id="DBSansCondRegular" horiz-adv-x="1126" vert-adv-y="2048" >
<font-face units-per-em="2048" ascent="1597" descent="-451" />
<missing-glyph horiz-adv-x="375" />
<glyph horiz-adv-x="0" vert-adv-y="0" />
<glyph horiz-adv-x="375" vert-adv-y="2457" />
<glyph unicode=" " horiz-adv-x="375" vert-adv-y="2457" />
<glyph unicode="!" horiz-adv-x="582" vert-adv-y="2457" d="M291 237q59 0 96 -39q35 -36 35 -92q0 -55 -35 -92q-37 -39 -96 -39t-96 39q-35 37 -35 94q0 54 35 90q38 39 96 39zM390 1489l-49 -1040h-116l-48 1040h213z" />
<glyph unicode="&#x22;" horiz-adv-x="743" vert-adv-y="2457" d="M473 952l-37 537h187l-37 -537h-113zM307 1489l-38 -537h-111l-39 537h188z" />
<glyph unicode="#" vert-adv-y="2457" d="M199 850v160h186l72 436h127l-72 -436h191l71 436h127l-71 -436h158v-160h-183l-39 -238h160v-160h-186l-72 -452h-129l74 452h-191l-71 -452h-129l73 452h-155v160h180l39 238h-160zM488 850l-39 -238h188l39 238h-188z" />
<glyph unicode="$" vert-adv-y="2457" d="M901 1249q-118 55 -217 74l-64 -516q134 -85 192 -134q155 -129 155 -314q0 -211 -178 -321q-84 -52 -205 -64q-24 -2 -66 -5l-31 -262h-123l33 270q-130 19 -250 76v164q139 -77 268 -94l70 563q-131 87 -188 140q-132 122 -132 290q0 188 145 288q104 71 271 76l21 158 h121l-21 -168q110 -17 199 -59v-162zM536 117q249 24 249 233q0 107 -83 184q-34 31 -104 78zM563 1333q-89 -6 -141 -39q-85 -53 -85 -161q0 -100 65 -168q34 -36 106 -85z" />
<glyph unicode="%" horiz-adv-x="1405" vert-adv-y="2457" d="M61 1081v54q0 159 66 246q74 98 210 98q137 0 211 -98q66 -87 66 -246v-54q0 -159 -66 -246q-74 -98 -211 -98q-136 0 -210 98q-66 87 -66 246zM460 1079v58q0 114 -22 164q-26 59 -101 59q-79 0 -105 -71q-17 -48 -17 -152v-58q0 -114 22 -164q26 -59 100 -59 q80 0 106 71q17 49 17 152zM151 0l967 1446h135l-967 -1446h-135zM790 317v54q0 159 66 246q74 98 211 98q136 0 210 -98q66 -87 66 -246v-54q0 -159 -66 -246q-74 -98 -210 -98t-211 98q-66 86 -66 246zM1189 315v58q0 114 -22 164q-26 59 -100 59q-80 0 -106 -71 q-17 -48 -17 -152v-58q0 -114 22 -164q26 -59 101 -59q79 0 105 71q17 48 17 152z" />
<glyph unicode="&#x26;" horiz-adv-x="1300" vert-adv-y="2457" d="M883 113q-165 -142 -371 -142q-225 0 -339 127q-95 105 -95 301q0 137 42 224q64 132 259 231q-118 185 -118 335q0 154 100 247q93 88 238 88q152 0 242 -94q83 -87 83 -227q0 -165 -128 -278q-61 -55 -167 -110l281 -416l174 449h166l-190 -474q-32 -80 -56 -114 q36 -54 64 -82q43 -41 99 -41q35 0 87 17v-152q-63 -31 -121 -31q-98 0 -170 58q-35 28 -80 84zM455 746q-79 -50 -119 -102q-61 -80 -61 -237q0 -155 68 -219q63 -59 184 -59q150 0 266 115zM558 920q80 48 119 96q61 74 61 179q0 182 -141 182q-71 0 -110 -49 q-38 -48 -38 -130q0 -123 109 -278z" />
<glyph unicode="'" horiz-adv-x="426" vert-adv-y="2457" d="M307 1489l-38 -537h-111l-39 537h188z" />
<glyph unicode="(" horiz-adv-x="844" vert-adv-y="2457" d="M721 -332h-147q-116 121 -185 235q-94 152 -139 315q-51 179 -51 404q0 311 101 549q90 213 274 406h147q-101 -116 -171 -241q-92 -164 -130 -342q-34 -159 -34 -372q0 -295 69 -502q81 -239 266 -452z" />
<glyph unicode=")" horiz-adv-x="844" vert-adv-y="2457" d="M123 1577h147q116 -121 186 -235q93 -152 138 -314q51 -181 51 -406q0 -311 -101 -548q-90 -214 -274 -406h-147q101 116 171 241q93 164 130 342q34 160 34 371q0 296 -69 503q-80 239 -266 452z" />
<glyph unicode="*" horiz-adv-x="731" vert-adv-y="2457" d="M284 852l56 276l-199 -180l-90 131l244 92l-240 91l88 131l195 -174l-54 270h166l-51 -270l189 174l90 -131l-240 -91l242 -92l-88 -131l-193 180l51 -276h-166z" />
<glyph unicode="+" vert-adv-y="2457" d="M155 611v147h332v360h156v-360h329v-147h-329v-359h-156v359h-332z" />
<glyph unicode="," horiz-adv-x="563" vert-adv-y="2457" d="M296 0q-23 -1 -34 -1q-52 0 -83 26q-39 33 -39 92q0 55 36 92t94 37q81 0 124 -66q35 -53 35 -136q0 -162 -117 -259q-73 -60 -178 -72v92q72 23 108 62q41 44 54 133z" />
<glyph unicode="-" horiz-adv-x="563" vert-adv-y="2457" d="M50 604v154h463v-154h-463z" />
<glyph unicode="." horiz-adv-x="563" vert-adv-y="2457" d="M281 245q60 0 99 -40q36 -38 36 -95t-36 -94q-39 -41 -99 -41t-99 41q-36 37 -36 96q0 56 36 93q40 40 99 40z" />
<glyph unicode="/" horiz-adv-x="786" vert-adv-y="2457" d="M-82 -332l702 1909h162l-702 -1909h-162z" />
<glyph unicode="0" vert-adv-y="2457" d="M102 574v305q0 281 103 429q123 175 358 175t358 -175q103 -148 103 -429v-305q0 -282 -103 -430q-123 -175 -358 -175t-358 175q-103 148 -103 430zM823 600v253q0 250 -50 360q-56 125 -210 125t-210 -125q-50 -110 -50 -360v-253q0 -250 50 -361q56 -125 210 -125 t210 125q50 111 50 361z" />
<glyph unicode="1" vert-adv-y="2457" d="M239 0v131h267v1132l-279 -108v137l367 164h98v-1325h246v-131h-699z" />
<glyph unicode="2" vert-adv-y="2457" d="M113 0v117l33 33q221 219 302 307q196 214 256 362q43 105 43 226q0 149 -51 210q-59 70 -188 70q-166 0 -342 -119v168q165 109 357 109q419 0 419 -432q0 -164 -80 -313q-80 -150 -310 -378q-43 -42 -214 -206h621l-15 -154h-831z" />
<glyph unicode="3" vert-adv-y="2457" d="M121 -90v164q160 8 245 25q218 43 313 146q77 83 77 243q0 109 -49 156q-49 48 -154 48q-84 0 -203 -26v145l60 14q157 34 217 83q84 67 84 215q0 106 -45 151q-51 51 -164 51q-143 0 -336 -94v162q186 90 357 90q376 0 376 -347q0 -171 -93 -256q-47 -44 -139 -85 q121 -18 181 -67q98 -79 98 -240q0 -230 -137 -362q-154 -149 -462 -196q-77 -12 -226 -20z" />
<glyph unicode="4" vert-adv-y="2457" d="M879 0h-184v319h-621v102l582 1103h180l-557 -1066h416v494l184 29v-523h164v-139h-164v-319z" />
<glyph unicode="5" vert-adv-y="2457" d="M926 1294h-486l-49 -438q80 26 164 26q177 0 276 -105q95 -101 95 -299q0 -154 -56 -257q-107 -193 -394 -269q-110 -30 -312 -42v163q155 10 234 28q199 44 280 152q60 80 60 226q0 144 -63 198t-196 54q-109 0 -258 -41l86 756h635z" />
<glyph unicode="6" vert-adv-y="2457" d="M328 786q136 109 297 109q194 0 295 -123q87 -106 87 -319q0 -209 -77 -318q-117 -166 -349 -166q-266 0 -376 227q-78 162 -78 429v120q0 392 228 594q146 130 367 174q73 15 179 23v-164q-267 -20 -402 -134q-131 -109 -161 -313q-8 -57 -10 -139zM328 651v-51 q0 -231 45 -342q28 -71 72 -103q54 -39 143 -39q147 0 196 119q26 62 26 215q0 185 -56 245q-53 55 -169 55q-139 0 -257 -99z" />
<glyph unicode="7" vert-adv-y="2457" d="M221 -90l582 1384h-684l12 152h842v-117l-563 -1419h-189z" />
<glyph unicode="8" vert-adv-y="2457" d="M742 772q131 -68 184 -128q84 -96 84 -254q0 -176 -96 -284q-121 -137 -349 -137q-202 0 -326 107q-122 104 -122 301q0 173 117 284q57 53 151 101q-94 56 -143 112q-84 96 -84 240q0 159 95 256q112 113 322 113q214 0 318 -118q76 -86 76 -234q0 -145 -94 -251 q-48 -55 -133 -108zM506 696q-78 -39 -122 -92q-77 -89 -77 -236q0 -119 64 -182q71 -70 198 -70q128 0 195 72q56 61 56 170t-48 171q-42 55 -152 112t-114 55zM625 834q65 47 98 92q55 76 55 190q0 111 -48 161q-57 61 -169 61q-105 0 -160 -54q-53 -52 -53 -146 q0 -98 49 -156q42 -50 133 -100q92 -51 95 -48z" />
<glyph unicode="9" vert-adv-y="2457" d="M799 666q-136 -109 -297 -109q-195 0 -296 123q-87 106 -87 319q0 209 77 318q117 166 350 166q265 0 376 -227q78 -162 78 -429v-120q0 -392 -237 -594q-152 -130 -381 -174q-77 -15 -187 -23v164q282 20 424 134q137 109 169 313q9 58 11 139zM799 801v51 q0 223 -43 336q-28 75 -75 109q-53 39 -143 39q-147 0 -196 -119q-26 -63 -26 -215q0 -185 56 -245q53 -55 169 -55q139 0 258 99z" />
<glyph unicode=":" horiz-adv-x="563" vert-adv-y="2457" d="M281 245q60 0 99 -40q36 -38 36 -95t-36 -94q-39 -41 -99 -41t-99 41q-36 37 -36 96q0 56 36 93q40 40 99 40zM281 962q60 0 99 -41q36 -37 36 -94t-36 -94q-38 -41 -99 -41q-60 0 -99 41q-36 37 -36 96q0 56 36 92q40 41 99 41z" />
<glyph unicode=";" horiz-adv-x="563" vert-adv-y="2457" d="M296 0q-23 -1 -34 -1q-52 0 -83 26q-39 33 -39 92q0 55 36 92t94 37q81 0 124 -66q35 -53 35 -136q0 -162 -117 -259q-73 -60 -178 -72v92q72 23 108 62q41 44 54 133zM281 962q60 0 99 -41q36 -36 36 -94q0 -57 -36 -94q-39 -41 -99 -41t-99 41q-36 37 -36 96 q0 56 36 92q40 41 99 41z" />
<glyph unicode="&#x3c;" vert-adv-y="2457" d="M955 1122v-170l-664 -268l664 -268v-170l-809 346v182z" />
<glyph unicode="=" vert-adv-y="2457" d="M174 775v147h778v-147h-778zM174 446v147h778v-147h-778z" />
<glyph unicode="&#x3e;" vert-adv-y="2457" d="M171 246v170l664 268l-664 268v170l809 -346v-182z" />
<glyph unicode="?" horiz-adv-x="791" vert-adv-y="2457" d="M378 438h-158v143q0 83 34 141q24 40 123 140q89 89 121 136q41 60 41 173q0 101 -42 146q-47 49 -148 49q-86 0 -167 -28q-42 -14 -114 -50v166q150 70 300 70q366 0 366 -364q0 -114 -52 -201q-38 -64 -166 -190q-91 -89 -115 -125q-23 -32 -23 -81v-125zM302 237 q59 0 97 -39q34 -36 34 -92t-34 -92q-38 -39 -97 -39t-96 39q-35 37 -35 94q0 54 35 90q38 39 96 39z" />
<glyph unicode="@" horiz-adv-x="1579" vert-adv-y="2457" d="M895 252q-106 -141 -249 -141q-102 0 -150 76q-44 68 -44 185t29 248q66 302 286 302q117 0 210 -84l43 82h115l-75 -537q-6 -44 -6 -61q0 -78 80 -78q111 0 171 109q68 125 68 317q0 237 -125 381q-146 168 -406 168q-299 0 -473 -226q-156 -204 -156 -538 q0 -330 174 -489q139 -127 380 -127q172 0 343 61q68 24 166 72v-127q-84 -42 -145 -63q-172 -62 -364 -62q-338 0 -527 210q-174 193 -174 519q0 234 86 430q105 239 318 361q169 98 380 98q209 0 369 -94q161 -95 237 -265q58 -131 58 -302q0 -276 -124 -424 q-106 -126 -282 -126q-165 0 -213 125zM944 756q-68 51 -139 51q-58 0 -91 -40q-40 -49 -72 -238q-20 -115 -20 -171q0 -130 88 -130q85 0 175 119z" />
<glyph unicode="A" horiz-adv-x="1204" vert-adv-y="2457" d="M1153 0h-205l-129 434h-465l-133 -434h-172l485 1497h144zM772 588l-182 616l-189 -616h371z" />
<glyph unicode="B" horiz-adv-x="1194" vert-adv-y="2457" d="M180 0v1489h421q201 0 299 -81q115 -95 115 -289q0 -109 -34 -172q-49 -93 -193 -153q127 -24 195 -90q98 -95 98 -281q0 -423 -477 -423h-424zM368 150h209q140 0 213 49q60 40 80 112q12 41 12 110q0 171 -76 231q-70 56 -207 56h-231v-558zM368 860h221q120 0 179 67 q52 59 52 186t-57 177q-50 45 -162 45h-233v-475z" />
<glyph unicode="C" horiz-adv-x="1147" vert-adv-y="2457" d="M1019 1464v-172q-159 76 -317 76q-228 0 -324 -168q-79 -138 -79 -421v-80q0 -272 79 -406q99 -168 320 -168q113 0 218 37q48 17 120 53v-166q-159 -78 -340 -78q-343 0 -495 258q-103 176 -103 476v80q0 321 127 507q157 230 478 230q169 0 316 -58z" />
<glyph unicode="D" horiz-adv-x="1292" vert-adv-y="2457" d="M180 0v1489h410q602 0 602 -680v-123q0 -351 -172 -529q-152 -157 -420 -157h-420zM368 150h219q204 0 302 122q102 126 102 400v145q0 295 -113 416q-96 102 -291 102h-219v-1185z" />
<glyph unicode="E" horiz-adv-x="1102" vert-adv-y="2457" d="M180 0v1489h766v-154h-578v-495h455v-152h-455v-534h631l-18 -154h-801z" />
<glyph unicode="F" horiz-adv-x="1083" vert-adv-y="2457" d="M180 0v1489h784v-154h-596v-518h496v-154h-496v-663h-188z" />
<glyph unicode="G" horiz-adv-x="1257" vert-adv-y="2457" d="M712 569v152h420v-651q-211 -101 -416 -101q-365 0 -518 261q-100 171 -100 450v117q0 269 105 447q166 280 530 280q192 0 338 -66v-166q-177 78 -339 78q-433 0 -433 -561v-139q0 -240 76 -373q100 -174 347 -174q117 0 224 39v407h-234z" />
<glyph unicode="H" horiz-adv-x="1350" vert-adv-y="2457" d="M180 0v1489h188v-649h613v649h188v-1489h-188v688h-613v-688h-188z" />
<glyph unicode="I" horiz-adv-x="727" vert-adv-y="2457" d="M270 121v1247h-166v121h520v-121h-166v-1247h166v-121h-520v121h166z" />
<glyph unicode="J" horiz-adv-x="547" vert-adv-y="2457" d="M-6 -254q100 17 144 71q42 53 42 161v1511h188v-1487q0 -201 -101 -300q-91 -90 -273 -103v147z" />
<glyph unicode="K" horiz-adv-x="1198" vert-adv-y="2457" d="M180 0v1489h188v-715l528 715h201l-551 -727l594 -762h-225l-547 709v-709h-188z" />
<glyph unicode="L" horiz-adv-x="1040" vert-adv-y="2457" d="M180 0v1489h188v-1335h590l-19 -154h-759z" />
<glyph unicode="M" horiz-adv-x="1587" vert-adv-y="2457" d="M170 0l29 1489h217l379 -1061l385 1061h227v-1489h-184v1192l-389 -1038h-119l-363 1018l-20 -1172h-162z" />
<glyph unicode="N" horiz-adv-x="1354" vert-adv-y="2457" d="M180 0v1489h160l665 -1090v1090h168v-1489h-125l-700 1143v-1143h-168z" />
<glyph unicode="O" horiz-adv-x="1339" vert-adv-y="2457" d="M98 686v121q0 271 104 454q88 156 248 221q102 42 220 42q176 0 308 -89q168 -114 229 -348q34 -128 34 -280v-121q0 -270 -104 -454q-88 -156 -248 -221q-102 -42 -219 -42q-177 0 -309 89q-168 114 -230 348q-33 128 -33 280zM1040 674v145q0 211 -55 342 q-90 216 -315 216q-241 0 -327 -243q-44 -126 -44 -315v-145q0 -210 55 -342q90 -216 316 -216q240 0 326 243q44 125 44 315z" />
<glyph unicode="P" horiz-adv-x="1137" vert-adv-y="2457" d="M184 0v1489h440q189 0 292 -79q82 -63 114 -168q22 -70 22 -184q0 -131 -30 -210q-89 -236 -448 -236q-103 0 -204 15v-627h-186zM370 776q97 -13 190 -13q170 0 239 76q56 60 56 211q0 165 -57 224q-60 61 -195 61h-233v-559z" />
<glyph unicode="Q" horiz-adv-x="1339" vert-adv-y="2457" d="M1140 -405q-264 8 -392 86q-107 65 -149 210q-11 36 -21 85q-202 34 -322 178q-158 190 -158 532v121q0 271 104 454q88 155 248 221q102 42 220 42q176 0 308 -89q167 -114 229 -348q34 -128 34 -280v-121q0 -375 -190 -567q-114 -115 -287 -142q15 -74 30 -104 q34 -67 107 -96q79 -31 239 -39v-143zM1040 674v145q0 211 -55 342q-90 216 -315 216q-241 0 -327 -243q-44 -126 -44 -315v-145q0 -210 55 -341q90 -216 316 -216q240 0 326 243q44 125 44 314z" />
<glyph unicode="R" horiz-adv-x="1194" vert-adv-y="2457" d="M180 0v1489h438q169 0 271 -66q94 -61 129 -168q22 -64 22 -170q0 -129 -38 -206q-48 -98 -148 -147q-39 -19 -115 -38q41 -25 68 -54q31 -34 69 -103l295 -537h-205l-268 493q-57 104 -107 138q-42 28 -129 28h-94v-659h-188zM368 811h225q139 0 199 67q51 56 51 195 q0 103 -22 155q-47 107 -224 107h-229v-524z" />
<glyph unicode="S" horiz-adv-x="975" vert-adv-y="2457" d="M70 59v168q191 -104 355 -104q144 0 217 73q61 61 61 169q0 113 -71 186q-48 49 -201 148q-141 90 -207 154q-121 118 -121 295q0 189 136 291q111 85 287 85q166 0 306 -68v-166q-168 82 -311 82q-121 0 -186 -63q-54 -51 -54 -149q0 -105 61 -172q46 -50 172 -128 q187 -115 264 -196q113 -118 113 -288q0 -194 -133 -304q-122 -101 -327 -101q-177 0 -361 88z" />
<glyph unicode="T" horiz-adv-x="1094" vert-adv-y="2457" d="M1018 1489v-154h-379v-1335h-186v1335h-381l12 154h934z" />
<glyph unicode="U" horiz-adv-x="1327" vert-adv-y="2457" d="M160 1489h195v-995q0 -174 56 -262q74 -116 267 -116q194 0 268 126q52 90 52 256v991h168v-987q0 -533 -490 -533q-309 0 -438 198q-78 121 -78 327v995z" />
<glyph unicode="V" horiz-adv-x="1176" vert-adv-y="2457" d="M1126 1489l-471 -1489h-135l-471 1489h188l363 -1184l358 1184h168z" />
<glyph unicode="W" horiz-adv-x="1640" vert-adv-y="2457" d="M532 0h-137l-344 1489h193l243 -1106l291 1106h115l278 -1106l256 1106h160l-350 -1489h-137l-277 1110z" />
<glyph unicode="X" horiz-adv-x="1194" vert-adv-y="2457" d="M63 0l422 772l-389 717h215l305 -580l291 580h180l-379 -721l422 -768h-213l-338 627l-336 -627h-180z" />
<glyph unicode="Y" horiz-adv-x="1171" vert-adv-y="2457" d="M702 0h-188v600l-440 889h202l344 -707l316 707h178l-412 -887v-602z" />
<glyph unicode="Z" horiz-adv-x="1102" vert-adv-y="2457" d="M80 0v117l707 1218h-658l12 154h867v-117l-707 -1218h707l-12 -154h-916z" />
<glyph unicode="[" horiz-adv-x="844" vert-adv-y="2457" d="M253 -332v1909h469v-131h-293v-1647h293v-131h-469z" />
<glyph unicode="\" horiz-adv-x="786" vert-adv-y="2457" d="M868 -332h-162l-702 1909h162z" />
<glyph unicode="]" horiz-adv-x="844" vert-adv-y="2457" d="M122 -332v131h293v1647h-293v131h469v-1909h-469z" />
<glyph unicode="^" vert-adv-y="2457" d="M163 877l319 612h179l303 -612h-160l-231 442l-248 -442h-162z" />
<glyph unicode="_" horiz-adv-x="563" vert-adv-y="2457" d="M-66 -389v145h694v-145h-694z" />
<glyph unicode="`" horiz-adv-x="1024" vert-adv-y="2457" d="M625 1200h-158l-182 348h203z" />
<glyph unicode="a" horiz-adv-x="979" vert-adv-y="2457" d="M942 10q-65 -24 -119 -24q-134 0 -172 133q-126 -152 -276 -152q-123 0 -199 77q-78 78 -78 228q0 156 71 227q54 54 162 78q81 19 314 38v116q0 104 -45 152q-42 46 -133 46q-129 0 -310 -81v152q169 79 328 79q340 0 340 -346v-526q0 -47 15 -63q15 -17 54 -17 q22 0 48 8v-125zM645 498l-27 -3q-195 -19 -248 -40q-65 -25 -83 -85q-11 -35 -11 -94q0 -170 146 -170q116 0 223 130v262z" />
<glyph unicode="b" horiz-adv-x="1069" vert-adv-y="2457" d="M145 0v1487q97 5 147 51h33v-612q71 63 120 93q97 60 209 60q170 0 255 -150q70 -124 70 -336v-109q0 -221 -70 -340q-102 -173 -300 -173q-155 0 -311 133l-34 -104h-119zM325 195q53 -34 87 -49q69 -30 148 -30q149 0 199 136q27 73 27 222v119q0 149 -31 220 q-47 108 -169 108q-85 0 -163 -42q-29 -15 -98 -62v-622z" />
<glyph unicode="c" horiz-adv-x="881" vert-adv-y="2457" d="M809 201v-154q-135 -76 -283 -76q-434 0 -434 502v119q0 204 84 329q107 158 348 158q132 0 268 -55v-162q-144 65 -267 65q-150 0 -201 -92q-42 -75 -42 -225v-155q0 -160 45 -238q55 -96 206 -96q127 0 276 80z" />
<glyph unicode="d" horiz-adv-x="1069" vert-adv-y="2457" d="M747 969v518q95 5 145 51h33v-1538h-119l-43 139q-82 -74 -129 -104q-100 -64 -215 -64q-170 0 -255 150q-70 125 -70 337v108q0 221 70 340q102 173 300 173q145 0 283 -110zM747 853q-120 73 -234 73q-149 0 -199 -133q-27 -71 -27 -216v-119q0 -177 44 -255 q48 -83 156 -83q120 0 260 112v621z" />
<glyph unicode="e" horiz-adv-x="979" vert-adv-y="2457" d="M895 485h-612q-1 -154 31 -234q53 -133 237 -133q100 0 193 35q38 14 108 48v-154q-159 -76 -309 -76q-232 0 -347 142q-104 127 -104 397q0 301 108 434q110 135 309 135q386 0 386 -498v-96zM702 618q-1 142 -29 216q-42 110 -168 110q-215 0 -222 -326h419z" />
<glyph unicode="f" horiz-adv-x="649" vert-adv-y="2457" d="M602 924h-224v-924h-180v924h-137v137h137v85q0 214 98 311q86 85 263 85h73v-151q-42 6 -68 6q-107 0 -152 -73q-34 -54 -34 -169v-94h224v-137z" />
<glyph unicode="g" horiz-adv-x="956" vert-adv-y="2457" d="M316 375q-37 -54 -37 -99q0 -92 137 -92h97q195 0 287 -48q122 -64 122 -239q0 -331 -446 -331q-208 0 -324 73q-111 69 -111 195q0 153 174 254q-86 48 -86 136q0 97 103 196q-121 99 -121 292q0 196 117 290q94 77 251 77q75 0 140 -18h315v-104h-27q-70 0 -124 -19 q51 -94 51 -216q0 -192 -105 -288q-93 -84 -256 -84q-85 0 -157 25zM471 948q-102 0 -146 -61q-38 -53 -38 -169q0 -133 46 -184t138 -51q103 0 147 62q38 52 38 171q0 130 -45 183q-43 49 -140 49zM309 53q-98 -84 -98 -196q0 -81 64 -118q68 -38 202 -38q181 0 243 71 q34 39 34 120q0 102 -73 133q-44 20 -126 20h-149q-54 0 -97 8z" />
<glyph unicode="h" horiz-adv-x="1055" vert-adv-y="2457" d="M145 0v1487q97 5 147 51h33v-612q74 62 128 93q104 60 213 60q113 0 178 -65q75 -76 75 -221v-793h-180v773q0 152 -135 152q-83 0 -175 -45q-33 -17 -104 -59v-821h-180z" />
<glyph unicode="i" horiz-adv-x="545" vert-adv-y="2457" d="M297 1494q54 0 90 -37q32 -33 32 -85t-32 -85q-36 -37 -90 -37t-90 37q-32 33 -32 87q0 51 32 83q37 37 90 37zM387 0h-180v907h-131v135h70q144 0 203 44h38v-1086z" />
<glyph unicode="j" horiz-adv-x="543" vert-adv-y="2457" d="M295 1494q54 0 90 -37q32 -33 32 -85t-32 -85q-36 -37 -90 -37t-90 37q-32 33 -32 87q0 51 32 83q37 37 90 37zM72 899v143h74q142 0 202 44h43v-1125q0 -358 -348 -397v145q85 16 129 78q39 55 39 164v948h-139z" />
<glyph unicode="k" horiz-adv-x="952" vert-adv-y="2457" d="M145 0v1487q97 5 147 51h33v-991l375 514h188l-325 -418l358 -643h-197l-276 496l-123 -154v-342h-180z" />
<glyph unicode="l" horiz-adv-x="528" vert-adv-y="2457" d="M368 0h-180v1354h-137v135h74q146 0 202 43h41v-1532z" />
<glyph unicode="m" horiz-adv-x="1569" vert-adv-y="2457" d="M145 0v1034q97 5 147 52h33v-156q75 63 123 92q94 57 195 57q160 0 213 -161q75 64 126 95q108 66 216 66q124 0 184 -90q49 -73 49 -194v-795h-180v793q0 132 -116 132q-75 0 -154 -38q-34 -16 -103 -57v-830h-180v793q0 132 -116 132q-73 0 -154 -39q-33 -16 -103 -56 v-830h-180z" />
<glyph unicode="n" horiz-adv-x="1057" vert-adv-y="2457" d="M145 0v1034q97 5 147 52h33v-160q80 66 130 94q104 59 212 59q132 0 198 -91q54 -73 54 -195v-793h-180v789q0 63 -34 99q-35 37 -102 37q-81 0 -170 -44q-35 -16 -108 -60v-821h-180z" />
<glyph unicode="o" horiz-adv-x="1038" vert-adv-y="2457" d="M92 463v125q0 214 103 345q115 146 324 146t324 -146q103 -131 103 -345v-125q0 -215 -103 -345q-115 -147 -324 -147t-324 147q-103 130 -103 345zM756 446v158q0 340 -237 340t-237 -340v-158q0 -340 237 -340t237 340z" />
<glyph unicode="p" horiz-adv-x="1069" vert-adv-y="2457" d="M145 -414v1448q97 5 147 52h33v-160q64 58 110 87q101 66 215 66q180 0 262 -150q67 -123 67 -336v-109q0 -221 -70 -340q-102 -173 -300 -173q-144 0 -284 111v-496h-180zM325 195q117 -79 235 -79q149 0 199 136q27 73 27 222v119q0 149 -31 220q-22 53 -57 78 q-43 31 -117 31q-80 0 -162 -44q-31 -18 -94 -61v-622z" />
<glyph unicode="q" horiz-adv-x="1071" vert-adv-y="2457" d="M745 -414v539q-60 -55 -112 -89q-99 -65 -214 -65q-170 0 -255 151q-70 124 -70 336v108q0 221 70 340q102 173 300 173q158 0 304 -129l38 111h119v-1475h-180zM745 232v621q-114 73 -232 73q-149 0 -199 -133q-27 -71 -27 -216v-119q0 -172 43 -252q46 -86 157 -86 q121 0 258 112z" />
<glyph unicode="r" horiz-adv-x="743" vert-adv-y="2457" d="M68 0v133h141v766h-137v143h72q143 0 202 44h43v-173q156 148 306 166v-182q-181 -18 -306 -88v-676h158v-133h-479z" />
<glyph unicode="s" horiz-adv-x="836" vert-adv-y="2457" d="M100 39v156q63 -30 93 -41q86 -32 184 -32q102 0 151 37q45 33 45 107q0 57 -31 95q-30 38 -164 101q-151 72 -203 131q-65 74 -65 192q0 130 81 206q89 84 256 84q124 0 251 -49v-158q-144 60 -249 60q-173 0 -173 -128q0 -58 29 -93q19 -23 47 -40q24 -15 108 -53 q149 -66 212 -131q75 -76 75 -199q0 -150 -102 -232q-93 -75 -262 -75q-144 0 -283 62z" />
<glyph unicode="t" horiz-adv-x="709" vert-adv-y="2457" d="M657 10q-83 -33 -161 -33q-185 0 -253 120q-43 76 -43 204v623h-141v137h37q66 0 93 27q29 28 48 100l26 102h117v-229h252v-137h-252v-634q0 -84 25 -121q32 -49 121 -49q54 0 131 27v-137z" />
<glyph unicode="u" horiz-adv-x="1040" vert-adv-y="2457" d="M733 131q-71 -67 -125 -100q-99 -60 -210 -60q-261 0 -261 314v766l180 12v-773q0 -82 22 -118q33 -56 113 -56q79 0 163 45q40 21 100 62v828l180 12v-1063h-123z" />
<glyph unicode="v" horiz-adv-x="932" vert-adv-y="2457" d="M899 1061l-360 -1061h-125l-381 1061h186l265 -778l251 778h164z" />
<glyph unicode="w" horiz-adv-x="1360" vert-adv-y="2457" d="M317 0l-274 1061h186l185 -776l221 776h127l213 -776l188 776h154l-273 -1061h-151l-207 748l-223 -748h-146z" />
<glyph unicode="x" horiz-adv-x="969" vert-adv-y="2457" d="M55 0l324 551l-304 510h201l217 -383l215 383h168l-293 -498l330 -563h-201l-243 434l-246 -434h-168z" />
<glyph unicode="y" horiz-adv-x="948" vert-adv-y="2457" d="M187 -414l213 533l-367 942h190l265 -709l260 709h168l-561 -1475h-168z" />
<glyph unicode="z" horiz-adv-x="866" vert-adv-y="2457" d="M72 0v104l510 820h-465v137h678v-102l-508 -822h506v-137h-721z" />
<glyph unicode="{" horiz-adv-x="844" vert-adv-y="2457" d="M752 1446h-55q-123 0 -169 -51q-49 -53 -49 -201v-274q0 -136 -52 -204q-40 -51 -140 -85q99 -33 140 -85q52 -68 52 -204v-291q0 -159 58 -210q47 -42 160 -42h55v-131h-47q-234 0 -324 104q-78 90 -78 296v299q0 114 -61 154q-49 32 -162 40v139q111 9 162 42 q61 39 61 153v283q0 222 94 311q91 88 308 88h47v-131z" />
<glyph unicode="|" horiz-adv-x="563" vert-adv-y="2457" d="M217 -334v1950h141v-1950h-141z" />
<glyph unicode="}" horiz-adv-x="844" vert-adv-y="2457" d="M92 -201h55q122 0 168 51q49 53 49 201v291q0 136 53 204q41 53 139 85q-99 33 -139 85q-53 67 -53 204v274q0 159 -58 210q-46 42 -159 42h-55v131h47q233 0 323 -104q78 -90 78 -295v-283q0 -114 62 -153q51 -33 162 -42v-139q-113 -8 -162 -40q-62 -40 -62 -154v-299 q0 -223 -93 -312q-92 -88 -308 -88h-47v131z" />
<glyph unicode="~" vert-adv-y="2457" d="M238 555l-82 72q117 170 269 170q60 0 159 -32q85 -27 129 -27q84 0 175 83l81 -71q-120 -172 -267 -172q-60 0 -159 32q-87 29 -134 29q-80 0 -171 -84z" />
<glyph unicode="&#xa0;" horiz-adv-x="375" vert-adv-y="2457" />
<glyph unicode="&#xa1;" horiz-adv-x="582" vert-adv-y="2457" d="M291 1278q59 0 96 -39q35 -36 35 -94q0 -53 -35 -90q-37 -39 -96 -39t-96 39q-35 36 -35 92q0 57 35 92q38 39 96 39zM192 -236l49 1041h117l47 -1041h-213z" />
<glyph unicode="&#xa2;" vert-adv-y="2457" d="M506 -18l-90 -275h-125l103 309q-232 127 -232 461v111q0 255 145 386q115 105 304 105q60 0 130 -10l66 197h125l-76 -225q27 -8 45 -17v-162q-40 19 -92 35l-256 -772q26 -5 57 -5q111 0 202 34q29 11 106 47v-154q-71 -34 -110 -47q-87 -29 -191 -29q-55 0 -111 11z M694 921q-56 7 -82 7q-138 0 -197 -76q-58 -76 -58 -248v-145q0 -112 22 -182q20 -65 66 -107z" />
<glyph unicode="&#xa3;" vert-adv-y="2457" d="M100 0v154h150v512h-150v145h150v231q0 180 71 284q107 157 352 157q156 0 277 -64v-164q-140 72 -270 72q-244 0 -244 -258v-258h342v-145h-342v-512h557l-16 -154h-877z" />
<glyph unicode="&#xa4;" vert-adv-y="2457" d="M563 992q-117 0 -181 -68q-71 -76 -71 -201q0 -131 71 -207q64 -69 182 -69q116 0 180 69q71 76 71 204q0 129 -71 204q-66 68 -181 68zM174 235l-103 104l122 123q-72 113 -72 257q0 145 72 258l-122 123l103 104l117 -119q115 84 271 84q160 0 274 -84l117 119 l103 -104l-122 -124q72 -113 72 -257q0 -145 -72 -256l122 -124l-103 -104l-118 119q-113 -84 -271 -84q-159 0 -273 84z" />
<glyph unicode="&#xa5;" vert-adv-y="2457" d="M141 559v131h312l-373 756h200l295 -627l293 627h180l-371 -756h308v-131h-328v-160h328v-131h-328v-268h-188v268h-328v131h328v160h-328z" />
<glyph unicode="&#xa6;" horiz-adv-x="563" vert-adv-y="2457" d="M217 883v606h141v-606h-141zM217 0v606h141v-606h-141z" />
<glyph unicode="&#xa7;" vert-adv-y="2457" d="M769 270q96 -104 96 -244q0 -159 -98 -249t-275 -90q-135 0 -287 71v158q62 -31 111 -50q82 -32 168 -32q96 0 146 36q57 41 57 143q0 92 -58 146q-26 25 -72 52q-7 4 -128 70q-139 75 -200 134q-85 81 -85 215q0 209 223 279q-96 100 -96 242q0 144 94 235q97 95 266 95 q120 0 238 -49v-160q-139 59 -241 59q-83 0 -131 -37q-56 -44 -56 -129q0 -81 47 -129q43 -44 158 -104q133 -70 171 -96q167 -115 167 -291q0 -138 -90 -212q-44 -36 -125 -63zM670 348q140 39 140 177q0 85 -64 142q-35 31 -170 105l-105 58q-159 -31 -159 -176 q0 -112 145 -190z" />
<glyph unicode="&#xa8;" horiz-adv-x="1024" vert-adv-y="2457" d="M337 1483q50 0 82 -33q29 -30 29 -78q0 -47 -29 -77q-32 -33 -81 -33q-50 0 -82 33q-29 30 -29 79q0 47 29 76q33 33 81 33zM685 1483q50 0 82 -33q29 -30 29 -78q0 -47 -29 -77q-32 -33 -81 -33q-50 0 -82 33q-29 30 -29 79q0 46 29 76q33 33 81 33z" />
<glyph unicode="&#xa9;" horiz-adv-x="1634" vert-adv-y="2457" d="M1038 410q-90 -41 -194 -41q-179 0 -270 112q-74 92 -74 262q0 189 95 286q92 95 253 95q101 0 182 -30v-113q-85 37 -169 37q-106 0 -158 -62q-51 -61 -51 -214q0 -151 59 -213q53 -54 150 -54q79 0 177 45v-110zM818 1466q324 0 518 -202q203 -211 203 -517 q0 -308 -203 -518q-195 -202 -519 -202q-323 0 -517 202q-203 210 -203 524q0 195 93 362q195 351 628 351zM819 1384q-266 0 -437 -170q-182 -183 -182 -461q0 -288 179 -471q171 -173 440 -173t440 175q178 181 178 463q0 279 -179 463q-169 174 -439 174z" />
<glyph unicode="&#xaa;" horiz-adv-x="821" vert-adv-y="2457" d="M557 672q-47 -56 -86 -84q-75 -54 -167 -54q-122 0 -182 82q-48 65 -48 185q0 118 53 177q59 65 220 91q62 11 200 23v92q0 166 -150 166q-116 0 -270 -70v137q150 66 285 66q158 0 230 -80q65 -72 65 -217v-435q0 -114 43 -153v-35h-158zM547 989q-201 -23 -243 -43 q-47 -22 -62 -65q-10 -28 -10 -81q0 -70 23 -102q30 -41 94 -41q104 0 198 109v223z" />
<glyph unicode="&#xab;" horiz-adv-x="899" vert-adv-y="2457" d="M825 104h-131l-248 391v89l248 393h131l-209 -436zM463 977l-209 -436l209 -437h-131l-248 391v89l248 393h131z" />
<glyph unicode="&#xac;" vert-adv-y="2457" d="M155 611v147h744v-506h-156v359h-588z" />
<glyph unicode="&#xad;" horiz-adv-x="563" vert-adv-y="2457" d="M50 604v154h463v-154h-463z" />
<glyph unicode="&#xae;" horiz-adv-x="1141" vert-adv-y="2457" d="M415 811v469h192q156 0 156 -132q0 -95 -99 -120q23 -14 47 -53l101 -164h-115l-86 145q-14 25 -26 33q-14 10 -41 10h-25v-188h-104zM519 1069h72q68 0 68 67q0 64 -66 64h-74v-131zM571 1524q208 0 348 -141q142 -143 142 -351q0 -205 -140 -346t-354 -141 q-206 0 -347 141q-140 141 -140 346q0 206 141 350q140 142 350 142zM572 1446q-170 0 -281 -111q-119 -118 -119 -302t119 -300q111 -110 277 -110q173 0 284 110q119 116 119 300q0 183 -119 302q-110 111 -280 111z" />
<glyph unicode="&#xaf;" horiz-adv-x="1024" vert-adv-y="2457" d="M265 1288v152h494v-152h-494z" />
<glyph unicode="&#xb0;" horiz-adv-x="737" vert-adv-y="2457" d="M368 1483q133 0 222 -90q83 -84 83 -207t-83 -207q-89 -90 -221 -90q-135 0 -223 90q-83 85 -83 211q0 121 83 203q91 90 222 90zM368 1368q-76 0 -126 -54q-46 -51 -46 -126q0 -79 46 -130q49 -54 126 -54t126 54q46 51 46 128t-46 128q-50 54 -126 54z" />
<glyph unicode="&#xb1;" vert-adv-y="2457" d="M155 611v147h332v360h156v-360h329v-147h-329v-359h-156v359h-332zM155 0v147h817v-147h-817z" />
<glyph unicode="&#xb2;" horiz-adv-x="737" vert-adv-y="2457" d="M84 584v87l23 22q202 185 278 280q91 112 91 228q0 79 -30 112q-33 38 -101 38q-67 0 -136 -31q-33 -15 -92 -54v135q107 66 236 66q276 0 276 -262q0 -138 -96 -256q-72 -88 -255 -252h363l-11 -113h-546z" />
<glyph unicode="&#xb3;" horiz-adv-x="737" vert-adv-y="2457" d="M84 531v119q112 5 161 15q130 25 187 83q45 47 45 130q0 107 -110 107q-46 0 -141 -20v111l46 10q93 19 129 47q48 37 48 114q0 104 -113 104q-78 0 -224 -65v126q122 55 237 55q249 0 249 -212q0 -105 -55 -156q-17 -15 -57 -37q141 -31 141 -182q0 -143 -88 -222 q-98 -88 -293 -115q-47 -7 -162 -12z" />
<glyph unicode="&#xb4;" horiz-adv-x="1024" vert-adv-y="2457" d="M424 1200l137 348h201l-180 -348h-158z" />
<glyph unicode="&#xb5;" vert-adv-y="2457" d="M358 -19v-378h-178v1448l178 12v-773q0 -82 22 -118q34 -56 115 -56q79 0 163 45q39 20 100 62v828l180 12v-1063h-123l-39 131q-71 -67 -125 -100q-99 -60 -211 -60q-43 0 -82 10z" />
<glyph unicode="&#xb6;" vert-adv-y="2457" d="M759 -215v1561h-156v-697l-19 -1h-1l-3 -1l-72 -2q-80 0 -168 33q-145 55 -196 196q-28 77 -28 201q0 252 146 351q67 45 168 58q41 5 124 5h369v-1704h-164z" />
<glyph unicode="&#xb7;" horiz-adv-x="563" vert-adv-y="2457" d="M281 815q60 0 99 -40q36 -38 36 -95t-36 -95q-38 -40 -99 -40q-60 0 -99 40q-36 38 -36 97q0 56 36 93q40 40 99 40z" />
<glyph unicode="&#xb8;" horiz-adv-x="1024" vert-adv-y="2457" d="M345 -348l133 348h148l-97 -348h-184z" />
<glyph unicode="&#xb9;" horiz-adv-x="737" vert-adv-y="2457" d="M153 584v100h164v623l-172 -62v109l234 98h86v-768h152v-100h-464z" />
<glyph unicode="&#xba;" horiz-adv-x="877" vert-adv-y="2457" d="M440 1483q188 0 286 -137q49 -69 68 -161q13 -66 13 -174q0 -147 -29 -231q-47 -137 -156 -196q-82 -45 -183 -45q-188 0 -286 137q-49 69 -68 161q-13 67 -13 180q0 237 99 352q97 114 269 114zM440 1362q-111 0 -158 -84q-42 -74 -42 -262q0 -214 51 -287 q49 -69 148 -69q111 0 158 84q42 74 42 267q0 210 -51 282q-49 69 -148 69z" />
<glyph unicode="&#xbb;" horiz-adv-x="899" vert-adv-y="2457" d="M74 104l211 437l-211 436h133l248 -391v-88l-248 -394h-133zM436 104l209 437l-209 436h133l246 -391v-88l-246 -394h-133z" />
<glyph unicode="&#xbc;" horiz-adv-x="1690" vert-adv-y="2457" d="M138 584v100h164v623l-172 -62v109l234 98h86v-768h152v-100h-464zM319 0l881 1446h141l-881 -1446h-141zM1499 0h-146v185h-384v78l363 644h151l-345 -617h215v285l146 21v-306h102v-105h-102v-185z" />
<glyph unicode="&#xbd;" horiz-adv-x="1690" vert-adv-y="2457" d="M129 584v100h164v623l-172 -62v109l234 98h86v-768h152v-100h-464zM310 0l881 1446h141l-881 -1446h-141zM1012 0v87l23 22q203 187 278 281q91 112 91 228q0 77 -30 111q-33 38 -101 38q-70 0 -136 -31q-34 -17 -92 -54v135q108 66 236 66q276 0 276 -262 q0 -138 -96 -256q-72 -89 -255 -252h363l-11 -113h-546z" />
<glyph unicode="&#xbe;" horiz-adv-x="1690" vert-adv-y="2457" d="M84 531v119q112 5 161 15q130 25 187 83q45 47 45 130q0 107 -110 107q-46 0 -141 -20v111l46 10q93 19 129 47q48 37 48 114q0 104 -113 104q-78 0 -224 -65v126q122 55 237 55q249 0 249 -212q0 -105 -55 -156q-17 -15 -57 -37q141 -31 141 -182q0 -143 -88 -222 q-98 -88 -293 -115q-47 -7 -162 -12zM334 0l881 1446h141l-881 -1446h-141zM1517 0h-146v185h-384v78l363 644h151l-345 -617h215v285l146 21v-306h102v-105h-102v-185z" />
<glyph unicode="&#xbf;" horiz-adv-x="791" vert-adv-y="2457" d="M413 815h158v-143q0 -83 -34 -140q-23 -40 -123 -140q-90 -91 -121 -136q-41 -60 -41 -173q0 -101 42 -146q47 -49 148 -49q86 0 167 27q43 15 114 50v-166q-151 -69 -300 -69q-366 0 -366 364q0 113 52 200q38 64 166 190q91 89 115 125q23 33 23 81v125zM487 1278 q60 0 97 -39q35 -36 35 -94q0 -53 -35 -90q-37 -39 -96 -39t-96 39q-35 36 -35 92q0 57 35 92q38 39 95 39z" />
<glyph unicode="&#xc0;" horiz-adv-x="1204" vert-adv-y="2457" d="M1153 0h-205l-129 434h-465l-133 -434h-172l485 1497h144zM772 588l-182 616l-189 -616h371zM683 1612h-158l-174 319h203z" />
<glyph unicode="&#xc1;" horiz-adv-x="1204" vert-adv-y="2457" d="M1153 0h-205l-129 434h-465l-133 -434h-172l485 1497h144zM772 588l-182 616l-189 -616h371zM522 1612l129 319h201l-172 -319h-158z" />
<glyph unicode="&#xc2;" horiz-adv-x="1204" vert-adv-y="2457" d="M1153 0h-205l-129 434h-465l-133 -434h-172l485 1497h144zM772 588l-182 616l-189 -616h371zM317 1610l197 321h176l196 -321h-145l-139 186l-142 -186h-143z" />
<glyph unicode="&#xc3;" horiz-adv-x="1204" vert-adv-y="2457" d="M1153 0h-205l-129 434h-465l-133 -434h-172l485 1497h144zM772 588l-182 616l-189 -616h371zM386 1630l-84 64q93 159 205 159q43 0 111 -29q58 -24 88 -24q55 0 110 76l84 -61q-89 -162 -201 -162q-44 0 -113 28q-60 25 -92 25q-53 0 -108 -76z" />
<glyph unicode="&#xc4;" horiz-adv-x="1204" vert-adv-y="2457" d="M1153 0h-205l-129 434h-465l-133 -434h-172l485 1497h144zM772 588l-182 616l-189 -616h371zM427 1866q50 0 82 -33q29 -30 29 -77q0 -48 -29 -78q-32 -33 -81 -33q-50 0 -82 33q-29 30 -29 79q0 46 29 76q33 33 81 33zM775 1866q50 0 82 -33q29 -30 29 -77 q0 -48 -29 -78q-32 -33 -81 -33q-50 0 -82 33q-29 30 -29 79q0 46 29 76q33 33 81 33z" />
<glyph unicode="&#xc5;" horiz-adv-x="1204" vert-adv-y="2457" d="M1153 0h-205l-129 434h-465l-133 -434h-172l485 1497h144zM772 588l-182 616l-189 -616h371zM602 1997q98 0 158 -60q53 -54 53 -137q0 -81 -53 -136q-60 -60 -157 -60q-99 0 -159 60q-53 55 -53 139q0 81 53 134q61 60 158 60zM602 1909q-52 0 -79 -36q-21 -28 -21 -71 q0 -46 21 -74q27 -36 79 -36q51 0 79 36q21 28 21 72q0 46 -21 73q-28 36 -79 36z" />
<glyph unicode="&#xc6;" horiz-adv-x="1763" vert-adv-y="2457" d="M842 0v424h-414l-207 -417l-4 -7h-188l770 1489h809v-154h-578v-495h455v-152h-455v-534h631l-18 -154h-801zM842 578v675l-338 -675h338z" />
<glyph unicode="&#xc7;" horiz-adv-x="1147" vert-adv-y="2457" d="M709 -28l-89 -320h-184l127 331q-465 86 -465 722v80q0 322 127 507q157 230 478 230q169 0 316 -58v-172q-159 76 -317 76q-228 0 -324 -168q-79 -138 -79 -421v-80q0 -270 79 -406q97 -168 320 -168q156 0 338 90v-166q-151 -74 -327 -77z" />
<glyph unicode="&#xc8;" horiz-adv-x="1102" vert-adv-y="2457" d="M180 0v1489h766v-154h-578v-495h455v-152h-455v-534h631l-18 -154h-801zM685 1612h-158l-174 319h203z" />
<glyph unicode="&#xc9;" horiz-adv-x="1102" vert-adv-y="2457" d="M180 0v1489h766v-154h-578v-495h455v-152h-455v-534h631l-18 -154h-801zM499 1612l129 319h201l-172 -319h-158z" />
<glyph unicode="&#xca;" horiz-adv-x="1102" vert-adv-y="2457" d="M180 0v1489h766v-154h-578v-495h455v-152h-455v-534h631l-18 -154h-801zM278 1610l197 321h176l196 -321h-145l-139 186l-142 -186h-143z" />
<glyph unicode="&#xcb;" horiz-adv-x="1102" vert-adv-y="2457" d="M180 0v1489h766v-154h-578v-495h455v-152h-455v-534h631l-18 -154h-801zM396 1866q50 0 82 -33q29 -30 29 -77q0 -48 -29 -78q-32 -33 -81 -33q-50 0 -82 33q-29 30 -29 79q0 46 29 76q33 33 81 33zM744 1866q50 0 82 -33q29 -30 29 -77q0 -48 -29 -78q-32 -33 -81 -33 q-50 0 -82 33q-29 30 -29 79q0 46 29 76q33 33 81 33z" />
<glyph unicode="&#xcc;" horiz-adv-x="727" vert-adv-y="2457" d="M270 121v1247h-166v121h520v-121h-166v-1247h166v-121h-520v121h166zM468 1612h-158l-174 319h203z" />
<glyph unicode="&#xcd;" horiz-adv-x="727" vert-adv-y="2457" d="M270 121v1247h-166v121h520v-121h-166v-1247h166v-121h-520v121h166zM283 1612l129 319h201l-172 -319h-158z" />
<glyph unicode="&#xce;" horiz-adv-x="727" vert-adv-y="2457" d="M271 121v1247h-166v121h520v-121h-166v-1247h166v-121h-520v121h166zM79 1610l197 321h176l196 -321h-145l-139 186l-142 -186h-143z" />
<glyph unicode="&#xcf;" horiz-adv-x="727" vert-adv-y="2457" d="M270 121v1247h-166v121h520v-121h-166v-1247h166v-121h-520v121h166zM190 1866q50 0 82 -33q29 -30 29 -77q0 -48 -29 -78q-32 -33 -81 -33q-50 0 -82 33q-29 30 -29 79q0 46 29 76q33 33 81 33zM538 1866q50 0 82 -33q29 -30 29 -77q0 -48 -29 -78q-32 -33 -81 -33 q-50 0 -82 33q-29 30 -29 79q0 46 29 76q33 33 81 33z" />
<glyph unicode="&#xd0;" horiz-adv-x="1292" vert-adv-y="2457" d="M180 688h-141v152h141v649h410q602 0 602 -680v-123q0 -351 -172 -529q-152 -157 -420 -157h-420v688zM368 688v-538h219q205 0 304 122q102 126 102 400v145q0 295 -114 416q-95 102 -292 102h-219v-495h330v-152h-330z" />
<glyph unicode="&#xd1;" horiz-adv-x="1354" vert-adv-y="2457" d="M180 0v1489h160l665 -1090v1090h168v-1489h-125l-700 1143v-1143h-168zM479 1630l-84 64q93 159 205 159q43 0 111 -29q58 -24 88 -24q55 0 110 76l84 -61q-89 -162 -201 -162q-44 0 -113 28q-60 25 -92 25q-53 0 -108 -76z" />
<glyph unicode="&#xd2;" horiz-adv-x="1339" vert-adv-y="2457" d="M98 686v121q0 271 104 454q88 156 248 221q102 42 220 42q176 0 308 -89q168 -114 229 -348q34 -128 34 -280v-121q0 -270 -104 -454q-88 -156 -248 -221q-102 -42 -219 -42q-177 0 -309 89q-168 114 -230 348q-33 128 -33 280zM1040 674v145q0 211 -55 342 q-90 216 -315 216q-241 0 -327 -243q-44 -126 -44 -315v-145q0 -210 55 -342q90 -216 316 -216q240 0 326 243q44 125 44 315zM775 1612h-158l-174 319h203z" />
<glyph unicode="&#xd3;" horiz-adv-x="1339" vert-adv-y="2457" d="M98 686v121q0 271 104 454q88 156 248 221q102 42 220 42q176 0 308 -89q168 -114 229 -348q34 -128 34 -280v-121q0 -270 -104 -454q-88 -156 -248 -221q-102 -42 -219 -42q-177 0 -309 89q-168 114 -230 348q-33 128 -33 280zM1040 674v145q0 211 -55 342 q-90 216 -315 216q-241 0 -327 -243q-44 -126 -44 -315v-145q0 -210 55 -342q90 -216 316 -216q240 0 326 243q44 125 44 315zM589 1612l129 319h201l-172 -319h-158z" />
<glyph unicode="&#xd4;" horiz-adv-x="1339" vert-adv-y="2457" d="M98 686v121q0 271 104 454q88 156 248 221q102 42 220 42q176 0 308 -89q168 -114 229 -348q34 -128 34 -280v-121q0 -270 -104 -454q-88 -156 -248 -221q-102 -42 -219 -42q-177 0 -309 89q-168 114 -230 348q-33 128 -33 280zM1040 674v145q0 211 -55 342 q-90 216 -315 216q-241 0 -327 -243q-44 -126 -44 -315v-145q0 -210 55 -342q90 -216 316 -216q240 0 326 243q44 125 44 315zM385 1610l197 321h176l196 -321h-145l-139 186l-142 -186h-143z" />
<glyph unicode="&#xd5;" horiz-adv-x="1339" vert-adv-y="2457" d="M98 686v121q0 271 104 454q88 156 248 221q102 42 220 42q176 0 308 -89q168 -114 229 -348q34 -128 34 -280v-121q0 -270 -104 -454q-88 -156 -248 -221q-102 -42 -219 -42q-177 0 -309 89q-168 114 -230 348q-33 128 -33 280zM1040 674v145q0 211 -55 342 q-90 216 -315 216q-241 0 -327 -243q-44 -126 -44 -315v-145q0 -210 55 -342q90 -216 316 -216q240 0 326 243q44 125 44 315zM441 1630l-84 64q93 159 205 159q43 0 111 -29q58 -24 88 -24q55 0 110 76l84 -61q-89 -162 -201 -162q-44 0 -113 28q-60 25 -92 25 q-53 0 -108 -76z" />
<glyph unicode="&#xd6;" horiz-adv-x="1339" vert-adv-y="2457" d="M98 686v121q0 271 104 454q88 156 248 221q102 42 220 42q176 0 308 -89q168 -114 229 -348q34 -128 34 -280v-121q0 -270 -104 -454q-88 -156 -248 -221q-102 -42 -219 -42q-177 0 -309 89q-168 114 -230 348q-33 128 -33 280zM1040 674v145q0 211 -55 342 q-90 216 -315 216q-241 0 -327 -243q-44 -126 -44 -315v-145q0 -210 55 -342q90 -216 316 -216q240 0 326 243q44 125 44 315zM495 1866q50 0 82 -33q29 -30 29 -77q0 -48 -29 -78q-32 -33 -81 -33q-50 0 -82 33q-29 30 -29 79q0 46 29 76q33 33 81 33zM843 1866 q50 0 82 -33q29 -30 29 -77q0 -48 -29 -78q-32 -33 -81 -33q-50 0 -82 33q-29 30 -29 79q0 46 29 76q33 33 81 33z" />
<glyph unicode="&#xd7;" vert-adv-y="2457" d="M460 685l-275 276l103 102l275 -275l275 275l103 -103l-275 -275l275 -275l-103 -103l-275 276l-275 -276l-103 103z" />
<glyph unicode="&#xd8;" horiz-adv-x="1339" vert-adv-y="2457" d="M223 199q-124 190 -124 487v121q0 271 104 454q88 156 248 221q102 42 219 42q217 0 365 -134l114 166h146l-178 -261q125 -195 125 -488v-121q0 -270 -104 -454q-88 -156 -248 -221q-102 -42 -220 -42q-213 0 -366 135l-133 -196h-146zM341 370l597 877 q-98 130 -267 130q-241 0 -327 -243q-44 -126 -44 -315v-145q0 -172 41 -304zM1000 1124l-598 -877q98 -131 267 -131q372 0 372 558v145q0 174 -41 305z" />
<glyph unicode="&#xd9;" horiz-adv-x="1327" vert-adv-y="2457" d="M160 1489h195v-995q0 -174 56 -262q74 -116 267 -116q194 0 268 126q52 90 52 256v991h168v-987q0 -533 -490 -533q-309 0 -438 198q-78 121 -78 327v995zM799 1612h-158l-174 319h203z" />
<glyph unicode="&#xda;" horiz-adv-x="1327" vert-adv-y="2457" d="M160 1489h195v-995q0 -174 56 -262q74 -116 267 -116q194 0 268 126q52 90 52 256v991h168v-987q0 -533 -490 -533q-309 0 -438 198q-78 121 -78 327v995zM602 1612l129 319h201l-172 -319h-158z" />
<glyph unicode="&#xdb;" horiz-adv-x="1327" vert-adv-y="2457" d="M160 1489h195v-995q0 -174 56 -262q74 -116 267 -116q194 0 268 126q52 90 52 256v991h168v-987q0 -533 -490 -533q-309 0 -438 198q-78 121 -78 327v995zM379 1610l197 321h176l196 -321h-145l-139 186l-142 -186h-143z" />
<glyph unicode="&#xdc;" horiz-adv-x="1327" vert-adv-y="2457" d="M160 1489h195v-995q0 -174 56 -262q74 -116 267 -116q194 0 268 126q52 90 52 256v991h168v-987q0 -533 -490 -533q-309 0 -438 198q-78 121 -78 327v995zM489 1866q50 0 82 -33q29 -30 29 -77q0 -48 -29 -78q-32 -33 -81 -33q-50 0 -82 33q-29 30 -29 79q0 46 29 76 q33 33 81 33zM837 1866q50 0 82 -33q29 -30 29 -77q0 -48 -29 -78q-32 -33 -81 -33q-50 0 -82 33q-29 30 -29 79q0 46 29 76q33 33 81 33z" />
<glyph unicode="&#xdd;" horiz-adv-x="1171" vert-adv-y="2457" d="M702 0h-188v600l-440 889h202l344 -707l316 707h178l-412 -887v-602zM518 1612l129 319h201l-172 -319h-158z" />
<glyph unicode="&#xde;" horiz-adv-x="1137" vert-adv-y="2457" d="M184 0v1489h186v-301h254q189 0 292 -77q82 -60 114 -162q22 -68 22 -178q0 -127 -30 -202q-89 -229 -448 -229q-99 0 -204 14v-354h-186zM370 504q99 -13 190 -13q170 0 239 72q56 58 56 200q0 157 -57 213q-61 58 -195 58h-233v-530z" />
<glyph unicode="&#xdf;" horiz-adv-x="1073" vert-adv-y="2457" d="M143 0v1103q0 169 82 278q114 149 334 149q145 0 238 -67q108 -78 108 -216q0 -84 -48 -160q-32 -52 -115 -151q-64 -75 -82 -104q-28 -42 -28 -80q0 -46 43 -85q30 -27 105 -71q107 -64 152 -114q75 -81 75 -201q0 -150 -102 -233q-86 -69 -236 -69q-114 0 -213 41v152 q113 -52 208 -52q85 0 130 38t45 107q0 66 -44 108q-29 28 -120 84q-115 72 -151 118q-50 62 -50 151q0 81 41 151q24 39 95 129q62 77 84 112q37 59 37 121q0 71 -44 114q-45 44 -132 44q-232 0 -232 -293v-1104h-180z" />
<glyph unicode="&#xe0;" horiz-adv-x="979" vert-adv-y="2457" d="M942 10q-65 -24 -119 -24q-134 0 -172 133q-126 -152 -276 -152q-123 0 -199 77q-78 78 -78 228q0 156 71 227q54 54 162 78q81 19 314 38v116q0 104 -45 152q-42 46 -133 46q-129 0 -310 -81v152q169 79 328 79q340 0 340 -346v-526q0 -47 15 -63q15 -17 54 -17 q22 0 48 8v-125zM645 498l-27 -3q-195 -19 -248 -40q-65 -25 -83 -85q-11 -35 -11 -94q0 -170 146 -170q116 0 223 130v262zM603 1200h-158l-182 348h203z" />
<glyph unicode="&#xe1;" horiz-adv-x="979" vert-adv-y="2457" d="M942 10q-65 -24 -119 -24q-134 0 -172 133q-126 -152 -276 -152q-123 0 -199 77q-78 78 -78 228q0 156 71 227q54 54 162 78q81 19 314 38v116q0 104 -45 152q-42 46 -133 46q-129 0 -310 -81v152q169 79 328 79q340 0 340 -346v-526q0 -47 15 -63q15 -17 54 -17 q22 0 48 8v-125zM645 498l-27 -3q-195 -19 -248 -40q-65 -25 -83 -85q-11 -35 -11 -94q0 -170 146 -170q116 0 223 130v262zM401 1200l137 348h201l-180 -348h-158z" />
<glyph unicode="&#xe2;" horiz-adv-x="979" vert-adv-y="2457" d="M942 10q-65 -24 -119 -24q-134 0 -172 133q-126 -152 -276 -152q-123 0 -199 77q-78 78 -78 228q0 156 71 227q54 54 162 78q81 19 314 38v116q0 104 -45 152q-42 46 -133 46q-129 0 -310 -81v152q169 79 328 79q340 0 340 -346v-526q0 -47 15 -63q15 -17 54 -17 q22 0 48 8v-125zM645 498l-27 -3q-195 -19 -248 -40q-65 -25 -83 -85q-11 -35 -11 -94q0 -170 146 -170q116 0 223 130v262zM204 1210l197 326h176l196 -326h-145l-139 191l-142 -191h-143z" />
<glyph unicode="&#xe3;" horiz-adv-x="979" vert-adv-y="2457" d="M942 10q-65 -24 -119 -24q-134 0 -172 133q-126 -152 -276 -152q-123 0 -199 77q-78 78 -78 228q0 156 71 227q54 54 162 78q81 19 314 38v116q0 104 -45 152q-42 46 -133 46q-129 0 -310 -81v152q169 79 328 79q340 0 340 -346v-526q0 -47 15 -63q15 -17 54 -17 q22 0 48 8v-125zM645 498l-27 -3q-195 -19 -248 -40q-65 -25 -83 -85q-11 -35 -11 -94q0 -170 146 -170q116 0 223 130v262zM273 1247l-84 64q93 160 205 160q43 0 111 -29q58 -25 88 -25q56 0 110 76l84 -61q-89 -162 -201 -162q-44 0 -113 29q-59 25 -92 25 q-53 0 -108 -77z" />
<glyph unicode="&#xe4;" horiz-adv-x="979" vert-adv-y="2457" d="M942 10q-65 -24 -119 -24q-134 0 -172 133q-126 -152 -276 -152q-123 0 -199 77q-78 78 -78 228q0 156 71 227q54 54 162 78q81 19 314 38v116q0 104 -45 152q-42 46 -133 46q-129 0 -310 -81v152q169 79 328 79q340 0 340 -346v-526q0 -47 15 -63q15 -17 54 -17 q22 0 48 8v-125zM645 498l-27 -3q-195 -19 -248 -40q-65 -25 -83 -85q-11 -35 -11 -94q0 -170 146 -170q116 0 223 130v262zM314 1483q50 0 82 -33q29 -30 29 -78q0 -47 -29 -77q-32 -33 -81 -33q-50 0 -82 33q-29 30 -29 79q0 47 29 76q33 33 81 33zM662 1483q50 0 82 -33 q29 -30 29 -78q0 -47 -29 -77q-32 -33 -81 -33q-50 0 -82 33q-29 30 -29 79q0 46 29 76q33 33 81 33z" />
<glyph unicode="&#xe5;" horiz-adv-x="979" vert-adv-y="2457" d="M942 10q-65 -24 -119 -24q-134 0 -172 133q-126 -152 -276 -152q-123 0 -199 77q-78 78 -78 228q0 156 71 227q54 54 162 78q81 19 314 38v116q0 104 -45 152q-42 46 -133 46q-129 0 -310 -81v152q169 79 328 79q340 0 340 -346v-526q0 -47 15 -63q15 -17 54 -17 q22 0 48 8v-125zM645 498l-27 -3q-195 -19 -248 -40q-65 -25 -83 -85q-11 -35 -11 -94q0 -170 146 -170q116 0 223 130v262zM505 1614q98 0 158 -60q53 -54 53 -137q0 -81 -53 -136q-60 -60 -157 -60q-99 0 -159 60q-53 54 -53 139q0 81 53 134q61 60 158 60zM505 1526 q-52 0 -79 -36q-21 -28 -21 -71q0 -46 21 -74q27 -36 79 -36q51 0 79 36q21 28 21 72q0 46 -21 73q-28 36 -79 36z" />
<glyph unicode="&#xe6;" horiz-adv-x="1516" vert-adv-y="2457" d="M1388 201v-154q-159 -76 -308 -76q-244 0 -355 173q-157 -177 -346 -177q-127 0 -203 77q-78 78 -78 228q0 156 71 226q54 55 162 79q79 18 314 37v117q0 104 -45 152q-42 46 -133 46q-130 0 -310 -81v151q168 80 326 80q212 0 281 -140q98 140 286 140q217 0 311 -166 q70 -124 70 -332v-92h-612q0 -186 46 -270q56 -101 223 -101q99 0 192 35q38 14 108 48zM645 487l-27 -2q-195 -19 -248 -39q-65 -23 -83 -80q-11 -34 -11 -90q0 -170 146 -170q116 0 223 129v252zM1239 616q-2 143 -30 217q-41 111 -167 111q-129 0 -184 -116 q-35 -74 -39 -212h420z" />
<glyph unicode="&#xe7;" horiz-adv-x="881" vert-adv-y="2457" d="M545 -28l-88 -320h-184l127 333q-308 65 -308 488v119q0 204 84 329q107 158 348 158q132 0 268 -55v-162q-144 65 -267 65q-150 0 -201 -92q-42 -75 -42 -225v-155q0 -160 45 -238q55 -96 206 -96q127 0 276 80v-154q-125 -70 -264 -75z" />
<glyph unicode="&#xe8;" horiz-adv-x="979" vert-adv-y="2457" d="M895 485h-612q-1 -154 31 -234q53 -133 237 -133q100 0 193 35q38 14 108 48v-154q-159 -76 -309 -76q-232 0 -347 142q-104 127 -104 397q0 301 108 434q110 135 309 135q386 0 386 -498v-96zM702 618q-1 142 -29 216q-42 110 -168 110q-215 0 -222 -326h419zM619 1200 h-158l-182 348h203z" />
<glyph unicode="&#xe9;" horiz-adv-x="979" vert-adv-y="2457" d="M895 485h-612q-1 -154 31 -234q53 -133 237 -133q100 0 193 35q38 14 108 48v-154q-159 -76 -309 -76q-232 0 -347 142q-104 127 -104 397q0 301 108 434q110 135 309 135q386 0 386 -498v-96zM702 618q-1 142 -29 216q-42 110 -168 110q-215 0 -222 -326h419zM430 1200 l137 348h201l-180 -348h-158z" />
<glyph unicode="&#xea;" horiz-adv-x="979" vert-adv-y="2457" d="M895 485h-612q-1 -154 31 -234q53 -133 237 -133q100 0 193 35q38 14 108 48v-154q-159 -76 -309 -76q-232 0 -347 142q-104 127 -104 397q0 301 108 434q110 135 309 135q386 0 386 -498v-96zM702 618q-1 142 -29 216q-42 110 -168 110q-215 0 -222 -326h419zM233 1210 l197 326h176l196 -326h-145l-139 191l-142 -191h-143z" />
<glyph unicode="&#xeb;" horiz-adv-x="979" vert-adv-y="2457" d="M895 485h-612q-1 -154 31 -234q53 -133 237 -133q100 0 193 35q38 14 108 48v-154q-159 -76 -309 -76q-232 0 -347 142q-104 127 -104 397q0 301 108 434q110 135 309 135q386 0 386 -498v-96zM702 618q-1 142 -29 216q-42 110 -168 110q-215 0 -222 -326h419zM343 1483 q50 0 82 -33q29 -30 29 -78q0 -47 -29 -77q-32 -33 -81 -33q-50 0 -82 33q-29 30 -29 79q0 47 29 76q33 33 81 33zM691 1483q50 0 82 -33q29 -30 29 -78q0 -47 -29 -77q-32 -33 -81 -33q-50 0 -82 33q-29 30 -29 79q0 46 29 76q33 33 81 33z" />
<glyph unicode="&#xec;" horiz-adv-x="545" vert-adv-y="2457" d="M387 0h-180v907h-131v135h70q144 0 203 44h38v-1086zM386 1200h-158l-182 348h203z" />
<glyph unicode="&#xed;" horiz-adv-x="545" vert-adv-y="2457" d="M387 0h-180v907h-131v135h70q144 0 203 44h38v-1086zM184 1200l137 348h201l-180 -348h-158z" />
<glyph unicode="&#xee;" horiz-adv-x="545" vert-adv-y="2457" d="M387 0h-180v907h-131v135h70q144 0 203 44h38v-1086zM-12 1210l197 326h176l196 -326h-145l-139 191l-142 -191h-143z" />
<glyph unicode="&#xef;" horiz-adv-x="545" vert-adv-y="2457" d="M387 0h-180v907h-131v135h70q144 0 203 44h38v-1086zM99 1483q50 0 82 -33q29 -30 29 -78q0 -47 -29 -77q-32 -33 -81 -33q-50 0 -82 33q-29 30 -29 79q0 47 29 76q33 33 81 33zM447 1483q50 0 82 -33q29 -30 29 -78q0 -47 -29 -77q-32 -33 -81 -33q-50 0 -82 33 q-29 30 -29 79q0 46 29 76q33 33 81 33z" />
<glyph unicode="&#xf0;" horiz-adv-x="1038" vert-adv-y="2457" d="M547 1266l-281 -109v125l207 80q-70 85 -177 186h191q77 -67 136 -127l249 98v-124l-169 -68q243 -299 243 -686v-178q0 -214 -103 -345q-115 -147 -324 -147q-208 0 -324 147q-103 130 -103 345v125q0 214 100 349q107 144 291 144q138 0 212 -86q-66 153 -148 271z M282 604v-158q0 -340 237 -340t237 340v158q0 340 -239 340q-235 0 -235 -340z" />
<glyph unicode="&#xf1;" horiz-adv-x="1057" vert-adv-y="2457" d="M145 0v1034q97 5 147 52h33v-160q80 66 130 94q104 59 212 59q132 0 198 -91q54 -73 54 -195v-793h-180v789q0 63 -34 99q-35 37 -102 37q-81 0 -170 -44q-35 -16 -108 -60v-821h-180zM312 1247l-84 64q93 160 205 160q43 0 111 -29q58 -25 88 -25q56 0 110 76l84 -61 q-89 -162 -201 -162q-44 0 -113 29q-59 25 -92 25q-53 0 -108 -77z" />
<glyph unicode="&#xf2;" horiz-adv-x="1038" vert-adv-y="2457" d="M92 463v125q0 214 103 345q115 146 324 146t324 -146q103 -131 103 -345v-125q0 -215 -103 -345q-115 -147 -324 -147t-324 147q-103 130 -103 345zM756 446v158q0 340 -237 340t-237 -340v-158q0 -340 237 -340t237 340zM632 1200h-158l-182 348h203z" />
<glyph unicode="&#xf3;" horiz-adv-x="1038" vert-adv-y="2457" d="M92 463v125q0 214 103 345q115 146 324 146t324 -146q103 -131 103 -345v-125q0 -215 -103 -345q-115 -147 -324 -147t-324 147q-103 130 -103 345zM756 446v158q0 340 -237 340t-237 -340v-158q0 -340 237 -340t237 340zM431 1200l137 348h201l-180 -348h-158z" />
<glyph unicode="&#xf4;" horiz-adv-x="1038" vert-adv-y="2457" d="M92 463v125q0 214 103 345q115 146 324 146t324 -146q103 -131 103 -345v-125q0 -215 -103 -345q-115 -147 -324 -147t-324 147q-103 130 -103 345zM756 446v158q0 340 -237 340t-237 -340v-158q0 -340 237 -340t237 340zM234 1210l197 326h176l196 -326h-145l-139 191 l-142 -191h-143z" />
<glyph unicode="&#xf5;" horiz-adv-x="1038" vert-adv-y="2457" d="M92 463v125q0 214 103 345q115 146 324 146t324 -146q103 -131 103 -345v-125q0 -215 -103 -345q-115 -147 -324 -147t-324 147q-103 130 -103 345zM756 446v158q0 340 -237 340t-237 -340v-158q0 -340 237 -340t237 340zM303 1247l-84 64q93 160 205 160q43 0 111 -29 q58 -25 88 -25q56 0 110 76l84 -61q-89 -162 -201 -162q-44 0 -113 29q-59 25 -92 25q-53 0 -108 -77z" />
<glyph unicode="&#xf6;" horiz-adv-x="1038" vert-adv-y="2457" d="M92 463v125q0 214 103 345q115 146 324 146t324 -146q103 -131 103 -345v-125q0 -215 -103 -345q-115 -147 -324 -147t-324 147q-103 130 -103 345zM756 446v158q0 340 -237 340t-237 -340v-158q0 -340 237 -340t237 340zM344 1483q50 0 82 -33q29 -30 29 -78 q0 -47 -29 -77q-32 -33 -81 -33q-50 0 -82 33q-29 30 -29 79q0 47 29 76q33 33 81 33zM692 1483q50 0 82 -33q29 -30 29 -78q0 -47 -29 -77q-32 -33 -81 -33q-50 0 -82 33q-29 30 -29 79q0 46 29 76q33 33 81 33z" />
<glyph unicode="&#xf7;" vert-adv-y="2457" d="M563 1171q58 0 96 -39q35 -36 35 -92t-35 -92q-37 -39 -95 -39q-59 0 -97 39q-35 36 -35 94q0 54 35 90q39 39 96 39zM563 459q58 0 96 -39q35 -36 35 -92t-35 -92q-37 -39 -95 -39q-59 0 -97 39q-35 37 -35 94q0 54 35 90q39 39 96 39zM155 611v147h817v-147h-817z" />
<glyph unicode="&#xf8;" horiz-adv-x="1038" vert-adv-y="2457" d="M781 995l83 117h141l-144 -205q85 -127 85 -319v-125q0 -215 -103 -345q-116 -147 -324 -147q-151 0 -259 81l-101 -144h-141l162 230q-88 134 -88 325v125q0 214 103 345q115 146 324 146q158 0 262 -84zM691 866q-63 78 -173 78q-236 0 -236 -340v-158q0 -79 14 -142z M743 739l-393 -559q62 -74 169 -74q237 0 237 340v158q0 75 -13 135z" />
<glyph unicode="&#xf9;" horiz-adv-x="1040" vert-adv-y="2457" d="M733 131q-71 -67 -125 -100q-99 -60 -210 -60q-261 0 -261 314v766l180 12v-773q0 -82 22 -118q33 -56 113 -56q79 0 163 45q40 21 100 62v828l180 12v-1063h-123zM633 1200h-158l-182 348h203z" />
<glyph unicode="&#xfa;" horiz-adv-x="1040" vert-adv-y="2457" d="M733 131q-71 -67 -125 -100q-99 -60 -210 -60q-261 0 -261 314v766l180 12v-773q0 -82 22 -118q33 -56 113 -56q79 0 163 45q40 21 100 62v828l180 12v-1063h-123zM432 1200l137 348h201l-180 -348h-158z" />
<glyph unicode="&#xfb;" horiz-adv-x="1040" vert-adv-y="2457" d="M733 131q-71 -67 -125 -100q-99 -60 -210 -60q-261 0 -261 314v766l180 12v-773q0 -82 22 -118q33 -56 113 -56q79 0 163 45q40 21 100 62v828l180 12v-1063h-123zM231 1210l197 326h176l196 -326h-145l-139 191l-142 -191h-143z" />
<glyph unicode="&#xfc;" horiz-adv-x="1040" vert-adv-y="2457" d="M733 131q-71 -67 -125 -100q-99 -60 -210 -60q-261 0 -261 314v766l180 12v-773q0 -82 22 -118q33 -56 113 -56q79 0 163 45q40 21 100 62v828l180 12v-1063h-123zM341 1483q50 0 82 -33q29 -30 29 -78q0 -47 -29 -77q-32 -33 -81 -33q-50 0 -82 33q-29 30 -29 79 q0 47 29 76q33 33 81 33zM689 1483q50 0 82 -33q29 -30 29 -78q0 -47 -29 -77q-32 -33 -81 -33q-50 0 -82 33q-29 30 -29 79q0 46 29 76q33 33 81 33z" />
<glyph unicode="&#xfd;" horiz-adv-x="948" vert-adv-y="2457" d="M187 -414l213 533l-367 942h190l265 -709l260 709h168l-561 -1475h-168zM416 1200l137 348h201l-180 -348h-158z" />
<glyph unicode="&#xfe;" horiz-adv-x="1069" vert-adv-y="2457" d="M325 82v-496h-180v1901q97 5 147 51h33v-612q64 58 110 87q101 66 215 66q180 0 262 -150q67 -123 67 -336v-109q0 -221 -70 -340q-102 -173 -300 -173q-144 0 -284 111zM325 195q117 -79 235 -79q149 0 199 136q27 73 27 222v119q0 170 -44 246q-47 83 -163 83 q-78 0 -160 -44q-32 -18 -94 -61v-622z" />
<glyph unicode="&#xff;" horiz-adv-x="948" vert-adv-y="2457" d="M187 -414l213 533l-367 942h190l265 -709l260 709h168l-561 -1475h-168zM300 1483q50 0 82 -33q29 -30 29 -78q0 -47 -29 -77q-32 -33 -81 -33q-50 0 -82 33q-29 30 -29 79q0 47 29 76q33 33 81 33zM648 1483q50 0 82 -33q29 -30 29 -78q0 -47 -29 -77q-32 -33 -81 -33 q-50 0 -82 33q-29 30 -29 79q0 46 29 76q33 33 81 33z" />
<glyph unicode="&#x100;" horiz-adv-x="1204" vert-adv-y="2457" d="M1153 0h-205l-129 434h-465l-133 -434h-172l485 1497h144zM772 588l-182 616l-189 -616h371zM355 1671v152h494v-152h-494z" />
<glyph unicode="&#x101;" horiz-adv-x="979" vert-adv-y="2457" d="M942 10q-65 -24 -119 -24q-134 0 -172 133q-126 -152 -276 -152q-123 0 -199 77q-78 78 -78 228q0 156 71 227q54 54 162 78q81 19 314 38v116q0 104 -45 152q-42 46 -133 46q-129 0 -310 -81v152q169 79 328 79q340 0 340 -346v-526q0 -47 15 -63q15 -17 54 -17 q22 0 48 8v-125zM645 498l-27 -3q-195 -19 -248 -40q-65 -25 -83 -85q-11 -35 -11 -94q0 -170 146 -170q116 0 223 130v262zM238 1288v152h494v-152h-494z" />
<glyph unicode="&#x102;" horiz-adv-x="1204" vert-adv-y="2457" d="M1153 0h-205l-129 434h-465l-133 -434h-172l485 1497h144zM772 588l-182 616l-189 -616h371zM863 1894q-7 -127 -75 -194q-71 -70 -185 -70q-115 0 -187 71q-68 68 -75 193h135q13 -127 127 -127q111 0 127 127h133z" />
<glyph unicode="&#x103;" horiz-adv-x="979" vert-adv-y="2457" d="M942 10q-65 -24 -119 -24q-134 0 -172 133q-126 -152 -276 -152q-123 0 -199 77q-78 78 -78 228q0 156 71 227q54 54 162 78q81 19 314 38v116q0 104 -45 152q-42 46 -133 46q-129 0 -310 -81v152q169 79 328 79q340 0 340 -346v-526q0 -47 15 -63q15 -17 54 -17 q22 0 48 8v-125zM645 498l-27 -3q-195 -19 -248 -40q-65 -25 -83 -85q-11 -35 -11 -94q0 -170 146 -170q116 0 223 130v262zM750 1499q-7 -127 -75 -193q-71 -71 -185 -71q-115 0 -187 72q-68 67 -75 192h135q14 -127 127 -127q110 0 127 127h133z" />
<glyph unicode="&#x104;" horiz-adv-x="1204" vert-adv-y="2457" d="M1098 0q-72 -127 -72 -199q0 -92 90 -92q31 0 78 15v-132q-58 -18 -104 -18q-93 0 -154 47q-64 48 -64 137q0 110 117 242h-41l-129 434h-465l-133 -434h-172l485 1497h144l475 -1497h-55zM772 588l-182 616l-189 -616h371z" />
<glyph unicode="&#x105;" horiz-adv-x="979" vert-adv-y="2457" d="M864 -11q-66 -118 -66 -188q0 -92 91 -92q32 0 77 15v-132q-56 -18 -104 -18q-92 0 -153 47q-64 48 -64 137q0 108 113 238q-80 28 -107 123q-126 -152 -276 -152q-123 0 -199 77q-78 78 -78 228q0 156 71 227q54 54 162 78q82 19 314 38v116q0 104 -45 152 q-42 46 -133 46q-129 0 -310 -81v152q169 79 328 79q340 0 340 -346v-526q0 -47 15 -63q15 -17 54 -17q22 0 48 8v-125q-38 -14 -78 -21zM645 498l-55 -6q-168 -17 -220 -37q-65 -25 -83 -85q-11 -35 -11 -94q0 -170 146 -170q116 0 223 130v262z" />
<glyph unicode="&#x106;" horiz-adv-x="1147" vert-adv-y="2457" d="M1019 1464v-172q-159 76 -317 76q-228 0 -324 -168q-79 -138 -79 -421v-80q0 -272 79 -406q99 -168 320 -168q113 0 218 37q48 17 120 53v-166q-159 -78 -340 -78q-343 0 -495 258q-103 176 -103 476v80q0 321 127 507q157 230 478 230q169 0 316 -58zM596 1612l129 319 h201l-172 -319h-158z" />
<glyph unicode="&#x107;" horiz-adv-x="881" vert-adv-y="2457" d="M809 201v-154q-135 -76 -283 -76q-434 0 -434 502v119q0 204 84 329q107 158 348 158q132 0 268 -55v-162q-144 65 -267 65q-150 0 -201 -92q-42 -75 -42 -225v-155q0 -160 45 -238q55 -96 206 -96q127 0 276 80zM400 1200l137 348h201l-180 -348h-158z" />
<glyph unicode="&#x108;" horiz-adv-x="1147" vert-adv-y="2457" d="M1019 1464v-172q-159 76 -317 76q-228 0 -324 -168q-79 -138 -79 -421v-80q0 -272 79 -406q99 -168 320 -168q113 0 218 37q48 17 120 53v-166q-159 -78 -340 -78q-343 0 -495 258q-103 176 -103 476v80q0 321 127 507q157 230 478 230q169 0 316 -58zM391 1610l197 321 h176l196 -321h-145l-139 186l-142 -186h-143z" />
<glyph unicode="&#x109;" horiz-adv-x="881" vert-adv-y="2457" d="M809 201v-154q-135 -76 -283 -76q-434 0 -434 502v119q0 204 84 329q107 158 348 158q132 0 268 -55v-162q-144 65 -267 65q-150 0 -201 -92q-42 -75 -42 -225v-155q0 -160 45 -238q55 -96 206 -96q127 0 276 80zM226 1210l197 326h176l196 -326h-145l-139 191l-142 -191 h-143z" />
<glyph unicode="&#x10a;" horiz-adv-x="1147" vert-adv-y="2457" d="M1019 1464v-172q-159 76 -317 76q-228 0 -324 -168q-79 -138 -79 -421v-80q0 -272 79 -406q99 -168 320 -168q113 0 218 37q48 17 120 53v-166q-159 -78 -340 -78q-343 0 -495 258q-103 176 -103 476v80q0 321 127 507q157 230 478 230q169 0 316 -58zM706 1876 q54 0 90 -36q32 -34 32 -86t-32 -85q-36 -37 -90 -37t-90 37q-32 33 -32 87q0 51 32 84q36 36 90 36z" />
<glyph unicode="&#x10b;" horiz-adv-x="881" vert-adv-y="2457" d="M809 201v-154q-135 -76 -283 -76q-434 0 -434 502v119q0 204 84 329q107 158 348 158q132 0 268 -55v-162q-144 65 -267 65q-150 0 -201 -92q-42 -75 -42 -225v-155q0 -160 45 -238q55 -96 206 -96q127 0 276 80zM511 1494q54 0 90 -37q32 -33 32 -85t-32 -85 q-36 -37 -90 -37t-90 37q-32 33 -32 87q0 51 32 83q36 37 90 37z" />
<glyph unicode="&#x10c;" horiz-adv-x="1147" vert-adv-y="2457" d="M1019 1464v-172q-159 76 -317 76q-228 0 -324 -168q-79 -138 -79 -421v-80q0 -272 79 -406q99 -168 320 -168q113 0 218 37q48 17 120 53v-166q-159 -78 -340 -78q-343 0 -495 258q-103 176 -103 476v80q0 321 127 507q157 230 478 230q169 0 316 -58zM594 1610l-197 321 h143l142 -186l139 186h145l-196 -321h-176z" />
<glyph unicode="&#x10d;" horiz-adv-x="881" vert-adv-y="2457" d="M809 201v-154q-135 -76 -283 -76q-434 0 -434 502v119q0 204 84 329q107 158 348 158q132 0 268 -55v-162q-144 65 -267 65q-150 0 -201 -92q-42 -75 -42 -225v-155q0 -160 45 -238q55 -96 206 -96q127 0 276 80zM431 1210l-197 326h143l142 -191l139 191h145l-196 -326 h-176z" />
<glyph unicode="&#x10e;" horiz-adv-x="1292" vert-adv-y="2457" d="M180 0v1489h410q602 0 602 -680v-123q0 -351 -172 -529q-152 -157 -420 -157h-420zM368 150h219q204 0 302 122q102 126 102 400v145q0 295 -113 416q-96 102 -291 102h-219v-1185zM498 1610l-197 321h143l142 -186l139 186h145l-196 -321h-176z" />
<glyph unicode="&#x10f;" horiz-adv-x="1280" vert-adv-y="2457" d="M747 969v518q95 5 145 51h33v-1538h-119l-43 139q-82 -74 -129 -104q-100 -64 -215 -64q-170 0 -255 150q-70 125 -70 337v108q0 221 70 340q102 173 300 173q145 0 283 -110zM747 853q-120 73 -234 73q-149 0 -199 -133q-27 -71 -27 -216v-119q0 -177 44 -255 q48 -83 156 -83q120 0 260 112v621zM1057 1171l66 377h196l-117 -377h-145z" />
<glyph unicode="&#x110;" horiz-adv-x="1292" vert-adv-y="2457" d="M180 688h-141v152h141v649h410q602 0 602 -680v-123q0 -351 -172 -529q-152 -157 -420 -157h-420v688zM368 688v-538h219q205 0 304 122q102 126 102 400v145q0 295 -114 416q-95 102 -292 102h-219v-495h330v-152h-330z" />
<glyph unicode="&#x111;" horiz-adv-x="1069" vert-adv-y="2457" d="M747 1234h-253v147h253v106q95 5 145 51h33v-157h127v-147h-127v-1234h-119l-43 139q-81 -73 -129 -104q-100 -64 -215 -64q-170 0 -255 150q-70 125 -70 337v108q0 221 70 340q102 173 300 173q145 0 283 -110v265zM747 853q-120 73 -234 73q-149 0 -199 -133 q-27 -71 -27 -216v-119q0 -176 44 -255q48 -83 156 -83q120 0 260 112v621z" />
<glyph unicode="&#x112;" horiz-adv-x="1102" vert-adv-y="2457" d="M180 0v1489h766v-154h-578v-495h455v-152h-455v-534h631l-18 -154h-801zM320 1671v152h494v-152h-494z" />
<glyph unicode="&#x113;" horiz-adv-x="979" vert-adv-y="2457" d="M895 485h-612q-1 -154 31 -234q53 -133 237 -133q100 0 193 35q38 14 108 48v-154q-159 -76 -309 -76q-232 0 -347 142q-104 127 -104 397q0 301 108 434q110 135 309 135q386 0 386 -498v-96zM702 618q-1 142 -29 216q-42 110 -168 110q-215 0 -222 -326h419zM251 1288 v152h494v-152h-494z" />
<glyph unicode="&#x114;" horiz-adv-x="1102" vert-adv-y="2457" d="M180 0v1489h766v-154h-578v-495h455v-152h-455v-534h631l-18 -154h-801zM828 1894q-7 -127 -75 -194q-71 -70 -185 -70q-115 0 -187 71q-68 68 -75 193h135q13 -127 127 -127q111 0 127 127h133z" />
<glyph unicode="&#x116;" horiz-adv-x="1102" vert-adv-y="2457" d="M180 0v1489h766v-154h-578v-495h455v-152h-455v-534h631l-18 -154h-801zM580 1876q54 0 90 -36q32 -34 32 -86t-32 -85q-36 -37 -90 -37t-90 37q-32 33 -32 87q0 51 32 84q36 36 90 36z" />
<glyph unicode="&#x117;" horiz-adv-x="979" vert-adv-y="2457" d="M895 485h-612q-1 -154 31 -234q53 -133 237 -133q100 0 193 35q38 14 108 48v-154q-159 -76 -309 -76q-232 0 -347 142q-104 127 -104 397q0 301 108 434q110 135 309 135q386 0 386 -498v-96zM702 618q-1 142 -29 216q-42 110 -168 110q-215 0 -222 -326h419zM518 1494 q54 0 90 -37q32 -33 32 -85t-32 -85q-36 -37 -90 -37t-90 37q-32 33 -32 87q0 51 32 83q36 37 90 37z" />
<glyph unicode="&#x118;" horiz-adv-x="1102" vert-adv-y="2457" d="M903 0q-72 -128 -72 -199q0 -92 91 -92q30 0 77 15v-132q-57 -18 -104 -18q-93 0 -154 47q-64 48 -64 137q0 109 117 242h-614v1489h766v-154h-578v-495h455v-152h-455v-534h631l-18 -154h-78z" />
<glyph unicode="&#x119;" horiz-adv-x="979" vert-adv-y="2457" d="M785 17q-34 -64 -46 -90q-34 -72 -34 -127q0 -91 90 -91q32 0 77 15v-132q-56 -18 -103 -18q-93 0 -154 47q-64 48 -64 137q0 102 99 222q-50 -9 -104 -9q-235 0 -350 142q-104 127 -104 397q0 301 108 434q110 135 309 135q386 0 386 -498v-96h-612q-1 -154 31 -234 q53 -133 237 -133q100 0 193 35q38 14 108 48v-154q-46 -21 -67 -30zM702 618q-1 142 -29 216q-42 110 -168 110q-215 0 -222 -326h419z" />
<glyph unicode="&#x11a;" horiz-adv-x="1102" vert-adv-y="2457" d="M180 0v1489h766v-154h-578v-495h455v-152h-455v-534h631l-18 -154h-801zM490 1610l-197 321h143l142 -186l139 186h145l-196 -321h-176z" />
<glyph unicode="&#x11b;" horiz-adv-x="979" vert-adv-y="2457" d="M895 485h-612q-1 -154 31 -234q53 -133 237 -133q100 0 193 35q38 14 108 48v-154q-159 -76 -309 -76q-232 0 -347 142q-104 127 -104 397q0 301 108 434q110 135 309 135q386 0 386 -498v-96zM702 618q-1 142 -29 216q-42 110 -168 110q-215 0 -222 -326h419zM426 1210 l-197 326h143l142 -191l139 191h145l-196 -326h-176z" />
<glyph unicode="&#x11c;" horiz-adv-x="1257" vert-adv-y="2457" d="M712 569v152h420v-651q-211 -101 -416 -101q-365 0 -518 261q-100 171 -100 450v117q0 269 105 447q166 280 530 280q192 0 338 -66v-166q-177 78 -339 78q-433 0 -433 -561v-139q0 -240 76 -373q100 -174 347 -174q117 0 224 39v407h-234zM422 1610l197 321h176 l196 -321h-145l-139 186l-142 -186h-143z" />
<glyph unicode="&#x11d;" horiz-adv-x="956" vert-adv-y="2457" d="M316 375q-37 -54 -37 -99q0 -92 137 -92h97q195 0 287 -48q122 -64 122 -239q0 -331 -446 -331q-208 0 -324 73q-111 69 -111 195q0 153 174 254q-86 48 -86 136q0 97 103 196q-121 99 -121 292q0 196 117 290q94 77 251 77q75 0 140 -18h315v-104h-27q-70 0 -124 -19 q51 -94 51 -216q0 -192 -105 -288q-93 -84 -256 -84q-85 0 -157 25zM471 948q-102 0 -146 -61q-38 -53 -38 -169q0 -133 46 -184t138 -51q103 0 147 62q38 52 38 171q0 130 -45 183q-43 49 -140 49zM309 53q-98 -84 -98 -196q0 -81 64 -118q68 -38 202 -38q181 0 243 71 q34 39 34 120q0 102 -73 133q-44 20 -126 20h-149q-54 0 -97 8zM194 1210l197 326h176l196 -326h-145l-139 191l-142 -191h-143z" />
<glyph unicode="&#x11e;" horiz-adv-x="1257" vert-adv-y="2457" d="M712 569v152h420v-651q-211 -101 -416 -101q-365 0 -518 261q-100 171 -100 450v117q0 269 105 447q166 280 530 280q192 0 338 -66v-166q-177 78 -339 78q-433 0 -433 -561v-139q0 -240 76 -373q100 -174 347 -174q117 0 224 39v407h-234zM956 1894q-7 -127 -75 -194 q-71 -70 -185 -70q-115 0 -187 71q-68 68 -75 193h135q13 -127 127 -127q111 0 127 127h133z" />
<glyph unicode="&#x11f;" horiz-adv-x="956" vert-adv-y="2457" d="M316 375q-37 -54 -37 -99q0 -92 137 -92h97q195 0 287 -48q122 -64 122 -239q0 -331 -446 -331q-208 0 -324 73q-111 69 -111 195q0 153 174 254q-86 48 -86 136q0 97 103 196q-121 99 -121 292q0 196 117 290q94 77 251 77q75 0 140 -18h315v-104h-27q-70 0 -124 -19 q51 -94 51 -216q0 -192 -105 -288q-93 -84 -256 -84q-85 0 -157 25zM471 948q-102 0 -146 -61q-38 -53 -38 -169q0 -133 46 -184t138 -51q103 0 147 62q38 52 38 171q0 130 -45 183q-43 49 -140 49zM309 53q-98 -84 -98 -196q0 -81 64 -118q68 -38 202 -38q181 0 243 71 q34 39 34 120q0 102 -73 133q-44 20 -126 20h-149q-54 0 -97 8zM766 1499q-7 -127 -75 -193q-71 -71 -185 -71q-115 0 -187 72q-68 67 -75 192h135q14 -127 127 -127q110 0 127 127h133z" />
<glyph unicode="&#x120;" horiz-adv-x="1257" vert-adv-y="2457" d="M712 569v152h420v-651q-211 -101 -416 -101q-365 0 -518 261q-100 171 -100 450v117q0 269 105 447q166 280 530 280q192 0 338 -66v-166q-177 78 -339 78q-433 0 -433 -561v-139q0 -240 76 -373q100 -174 347 -174q117 0 224 39v407h-234zM713 1876q54 0 90 -36 q32 -34 32 -86t-32 -85q-36 -37 -90 -37t-90 37q-32 33 -32 87q0 51 32 84q36 36 90 36z" />
<glyph unicode="&#x121;" horiz-adv-x="956" vert-adv-y="2457" d="M316 375q-37 -54 -37 -99q0 -92 137 -92h97q195 0 287 -48q122 -64 122 -239q0 -331 -446 -331q-208 0 -324 73q-111 69 -111 195q0 153 174 254q-86 48 -86 136q0 97 103 196q-121 99 -121 292q0 196 117 290q94 77 251 77q75 0 140 -18h315v-104h-27q-70 0 -124 -19 q51 -94 51 -216q0 -192 -105 -288q-93 -84 -256 -84q-85 0 -157 25zM471 948q-102 0 -146 -61q-38 -53 -38 -169q0 -133 46 -184t138 -51q103 0 147 62q38 52 38 171q0 130 -45 183q-43 49 -140 49zM309 53q-98 -84 -98 -196q0 -81 64 -118q68 -38 202 -38q181 0 243 71 q34 39 34 120q0 102 -73 133q-44 20 -126 20h-149q-54 0 -97 8zM499 1494q54 0 90 -37q32 -33 32 -85t-32 -85q-36 -37 -90 -37t-90 37q-32 33 -32 87q0 51 32 83q36 37 90 37z" />
<glyph unicode="&#x122;" horiz-adv-x="1257" vert-adv-y="2457" d="M712 569v152h420v-651q-211 -101 -416 -101q-365 0 -518 261q-100 171 -100 450v117q0 269 105 447q166 280 530 280q192 0 338 -66v-166q-177 78 -339 78q-433 0 -433 -561v-139q0 -240 76 -373q100 -174 347 -174q117 0 224 39v407h-234zM436 -430l158 348h155 l-106 -348h-207z" />
<glyph unicode="&#x123;" horiz-adv-x="956" vert-adv-y="2457" d="M316 375q-37 -54 -37 -99q0 -92 137 -92h97q195 0 287 -48q122 -64 122 -239q0 -331 -446 -331q-208 0 -324 73q-111 69 -111 195q0 153 174 254q-86 48 -86 136q0 97 103 196q-121 99 -121 292q0 196 117 290q94 77 251 77q75 0 140 -18h315v-104h-27q-70 0 -124 -19 q51 -94 51 -216q0 -192 -105 -288q-93 -84 -256 -84q-85 0 -157 25zM471 948q-102 0 -146 -61q-38 -53 -38 -169q0 -133 46 -184t138 -51q103 0 147 62q38 52 38 171q0 130 -45 183q-43 49 -140 49zM309 53q-98 -84 -98 -196q0 -81 64 -118q68 -38 202 -38q181 0 243 71 q34 39 34 120q0 102 -73 133q-44 20 -126 20h-149q-54 0 -97 8zM724 1548l-137 -348h-201l180 348h158z" />
<glyph unicode="&#x124;" horiz-adv-x="1350" vert-adv-y="2457" d="M180 0v1489h188v-649h613v649h188v-1489h-188v688h-613v-688h-188zM390 1610l197 321h176l196 -321h-145l-139 186l-142 -186h-143z" />
<glyph unicode="&#x125;" horiz-adv-x="1055" vert-adv-y="2457" d="M141 0v1487q97 5 147 51h33v-612q74 62 128 93q104 60 213 60q113 0 178 -65q75 -76 75 -221v-793h-180v773q0 152 -135 152q-83 0 -175 -45q-33 -17 -104 -59v-821h-180zM21 1610l197 321h176l196 -321h-145l-139 186l-142 -186h-143z" />
<glyph unicode="&#x12a;" horiz-adv-x="727" vert-adv-y="2457" d="M270 121v1247h-166v121h520v-121h-166v-1247h166v-121h-520v121h166zM116 1671v152h494v-152h-494z" />
<glyph unicode="&#x12b;" horiz-adv-x="545" vert-adv-y="2457" d="M386 0h-180v907h-131v135h70q144 0 203 44h38v-1086zM17 1288v152h494v-152h-494z" />
<glyph unicode="&#x12d;" horiz-adv-x="545" vert-adv-y="2457" d="M387 0h-180v907h-131v135h70q144 0 203 44h38v-1086zM533 1499q-7 -127 -75 -193q-71 -71 -185 -71q-115 0 -187 72q-68 67 -75 192h135q14 -127 127 -127q110 0 127 127h133z" />
<glyph unicode="&#x12e;" horiz-adv-x="727" vert-adv-y="2457" d="M490 0q-72 -127 -72 -199q0 -92 91 -92q30 0 77 15v-132q-58 -18 -104 -18q-92 0 -153 47q-64 48 -64 137q0 110 116 242h-277v121h166v1247h-166v121h520v-121h-166v-1247h166v-121h-134z" />
<glyph unicode="&#x12f;" horiz-adv-x="537" vert-adv-y="2457" d="M275 0h-72v907h-131v135h70q144 0 203 44h38v-1086q-92 -129 -92 -200q0 -91 90 -91q31 0 78 15v-132q-58 -18 -104 -18q-93 0 -153 47q-64 48 -64 135q0 115 137 244zM293 1494q54 0 90 -37q32 -33 32 -85t-32 -85q-36 -37 -90 -37t-90 37q-32 33 -32 87q0 51 32 83 q37 37 90 37z" />
<glyph unicode="&#x130;" horiz-adv-x="727" vert-adv-y="2457" d="M270 121v1247h-166v121h520v-121h-166v-1247h166v-121h-520v121h166zM363 1876q54 0 90 -36q32 -34 32 -86t-32 -85q-36 -37 -90 -37t-90 37q-32 33 -32 87q0 51 32 84q36 36 90 36z" />
<glyph unicode="&#x131;" horiz-adv-x="545" vert-adv-y="2457" d="M387 0h-180v907h-131v135h70q144 0 203 44h38v-1086z" />
<glyph unicode="&#x134;" horiz-adv-x="547" vert-adv-y="2457" d="M-6 -254q100 17 144 71q42 53 42 161v1511h188v-1487q0 -201 -101 -300q-91 -90 -273 -103v147zM-11 1610l197 321h176l196 -321h-145l-139 186l-142 -186h-143z" />
<glyph unicode="&#x135;" horiz-adv-x="543" vert-adv-y="2457" d="M72 899v143h74q142 0 202 44h43v-1125q0 -358 -348 -397v145q85 16 129 78q39 55 39 164v948h-139zM-19 1210l197 326h176l196 -326h-145l-139 191l-142 -191h-143z" />
<glyph unicode="&#x136;" horiz-adv-x="1198" vert-adv-y="2457" d="M180 0v1489h188v-715l528 715h201l-551 -727l594 -762h-225l-547 709v-709h-188zM394 -430l158 348h155l-106 -348h-207z" />
<glyph unicode="&#x137;" horiz-adv-x="952" vert-adv-y="2457" d="M145 0v1487q97 5 147 51h33v-991l375 514h188l-325 -418l358 -643h-197l-276 496l-123 -154v-342h-180zM283 -430l158 348h155l-106 -348h-207z" />
<glyph unicode="&#x139;" horiz-adv-x="1040" vert-adv-y="2457" d="M180 0v1489h188v-1335h590l-19 -154h-759zM210 1612l129 319h201l-172 -319h-158z" />
<glyph unicode="&#x13a;" horiz-adv-x="528" vert-adv-y="2457" d="M368 0h-180v1354h-137v135h74q146 0 202 43h41v-1532zM184 1612l129 319h201l-172 -319h-158z" />
<glyph unicode="&#x13b;" horiz-adv-x="1040" vert-adv-y="2457" d="M180 0v1489h188v-1335h590l-19 -154h-759zM352 -430l158 348h155l-106 -348h-207z" />
<glyph unicode="&#x13c;" horiz-adv-x="528" vert-adv-y="2457" d="M368 0h-180v1354h-137v135h74q146 0 202 43h41v-1532zM47 -430l158 348h155l-106 -348h-207z" />
<glyph unicode="&#x13d;" horiz-adv-x="1040" vert-adv-y="2457" d="M180 0v1489h188v-1335h590l-19 -154h-759zM521 1171l66 377h196l-117 -377h-145z" />
<glyph unicode="&#x13e;" horiz-adv-x="739" vert-adv-y="2457" d="M368 0h-180v1354h-137v135h74q146 0 202 43h41v-1532zM516 1171l66 377h196l-117 -377h-145z" />
<glyph unicode="&#x141;" horiz-adv-x="1040" vert-adv-y="2457" d="M180 678v811h188v-719l430 207v-160l-430 -207v-456h590l-19 -154h-759v519l-162 -78v159z" />
<glyph unicode="&#x142;" horiz-adv-x="528" vert-adv-y="2457" d="M189 836v518h-138v135h74q146 0 203 43h41v-573l158 108v-160l-158 -108v-799h-180v676l-156 -107v160z" />
<glyph unicode="&#x143;" horiz-adv-x="1354" vert-adv-y="2457" d="M180 0v1489h160l665 -1090v1090h168v-1489h-125l-700 1143v-1143h-168zM597 1612l129 319h201l-172 -319h-158z" />
<glyph unicode="&#x144;" horiz-adv-x="1057" vert-adv-y="2457" d="M145 0v1034q97 5 147 52h33v-160q80 66 130 94q104 59 212 59q132 0 198 -91q54 -73 54 -195v-793h-180v789q0 63 -34 99q-35 37 -102 37q-81 0 -170 -44q-35 -16 -108 -60v-821h-180zM482 1200l137 348h201l-180 -348h-158z" />
<glyph unicode="&#x145;" horiz-adv-x="1354" vert-adv-y="2457" d="M180 0v1489h160l665 -1090v1090h168v-1489h-125l-700 1143v-1143h-168zM460 -430l158 348h155l-106 -348h-207z" />
<glyph unicode="&#x146;" horiz-adv-x="1057" vert-adv-y="2457" d="M145 0v1034q97 5 147 52h33v-160q80 66 130 94q104 59 212 59q132 0 198 -91q54 -73 54 -195v-793h-180v789q0 63 -34 99q-35 37 -102 37q-81 0 -170 -44q-35 -16 -108 -60v-821h-180zM323 -430l158 348h155l-106 -348h-207z" />
<glyph unicode="&#x147;" horiz-adv-x="1354" vert-adv-y="2457" d="M180 0v1489h160l665 -1090v1090h168v-1489h-125l-700 1143v-1143h-168zM601 1610l-197 321h143l142 -186l139 186h145l-196 -321h-176z" />
<glyph unicode="&#x148;" horiz-adv-x="1057" vert-adv-y="2457" d="M145 0v1034q97 5 147 52h33v-160q80 66 130 94q104 59 212 59q132 0 198 -91q54 -73 54 -195v-793h-180v789q0 63 -34 99q-35 37 -102 37q-81 0 -170 -44q-35 -16 -108 -60v-821h-180zM458 1210l-197 326h143l142 -191l139 191h145l-196 -326h-176z" />
<glyph unicode="&#x14c;" horiz-adv-x="1339" vert-adv-y="2457" d="M98 686v121q0 271 104 454q88 156 248 221q102 42 220 42q176 0 308 -89q168 -114 229 -348q34 -128 34 -280v-121q0 -270 -104 -454q-88 -156 -248 -221q-102 -42 -219 -42q-177 0 -309 89q-168 114 -230 348q-33 128 -33 280zM1040 674v145q0 211 -55 342 q-90 216 -315 216q-241 0 -327 -243q-44 -126 -44 -315v-145q0 -210 55 -342q90 -216 316 -216q240 0 326 243q44 125 44 315zM423 1671v152h494v-152h-494z" />
<glyph unicode="&#x14d;" horiz-adv-x="1038" vert-adv-y="2457" d="M92 463v125q0 214 103 345q115 146 324 146t324 -146q103 -131 103 -345v-125q0 -215 -103 -345q-115 -147 -324 -147t-324 147q-103 130 -103 345zM756 446v158q0 340 -237 340t-237 -340v-158q0 -340 237 -340t237 340zM272 1288v152h494v-152h-494z" />
<glyph unicode="&#x150;" horiz-adv-x="1339" vert-adv-y="2457" d="M98 686v121q0 271 104 454q88 156 248 221q102 42 220 42q176 0 308 -89q168 -114 229 -348q34 -128 34 -280v-121q0 -270 -104 -454q-88 -156 -248 -221q-102 -42 -219 -42q-177 0 -309 89q-168 114 -230 348q-33 128 -33 280zM1040 674v145q0 211 -55 342 q-90 216 -315 216q-241 0 -327 -243q-44 -126 -44 -315v-145q0 -210 55 -342q90 -216 316 -216q240 0 326 243q44 125 44 315zM746 1612l90 319h176l-121 -319h-145zM445 1612l90 319h174l-121 -319h-143z" />
<glyph unicode="&#x151;" horiz-adv-x="1038" vert-adv-y="2457" d="M92 463v125q0 214 103 345q115 146 324 146t324 -146q103 -131 103 -345v-125q0 -215 -103 -345q-115 -147 -324 -147t-324 147q-103 130 -103 345zM756 446v158q0 340 -237 340t-237 -340v-158q0 -340 237 -340t237 340zM588 1200l98 348h176l-129 -348h-145zM287 1200 l98 348h174l-129 -348h-143z" />
<glyph unicode="&#x152;" horiz-adv-x="2009" vert-adv-y="2457" d="M1888 0h-780v201q-54 -104 -122 -154q-105 -78 -276 -78q-303 0 -451 233q-114 180 -114 470v135q0 275 106 457q150 260 469 260q179 0 286 -90q53 -45 102 -134v189h745v-154h-578v-495h455v-152h-455v-534h631zM346 819v-145q0 -214 56 -345q91 -212 315 -212 q236 0 324 237q46 124 46 320v145q0 216 -56 345q-92 212 -314 212q-238 0 -325 -237q-46 -126 -46 -320z" />
<glyph unicode="&#x153;" horiz-adv-x="1638" vert-adv-y="2457" d="M1554 485h-612q-1 -162 35 -244q54 -123 234 -123q99 0 192 35q38 14 108 48v-154q-159 -76 -306 -76q-248 0 -357 187q-110 -187 -331 -187q-207 0 -322 147q-103 130 -103 344v125q0 215 103 345q115 147 322 147q224 0 331 -187q107 187 324 187q382 0 382 -498v-96z M282 604v-158q0 -340 237 -340t237 340v158q0 340 -237 340t-237 -340zM1362 618q-2 142 -30 216q-41 110 -166 110q-217 0 -224 -326h420z" />
<glyph unicode="&#x154;" horiz-adv-x="1194" vert-adv-y="2457" d="M180 0v1489h438q169 0 271 -66q94 -61 129 -168q22 -64 22 -170q0 -129 -38 -206q-48 -98 -148 -147q-39 -19 -115 -38q41 -25 68 -54q31 -34 69 -103l295 -537h-205l-268 493q-57 104 -107 138q-42 28 -129 28h-94v-659h-188zM368 811h225q139 0 199 67q51 56 51 195 q0 103 -22 155q-47 107 -224 107h-229v-524zM487 1612l129 319h201l-172 -319h-158z" />
<glyph unicode="&#x155;" horiz-adv-x="743" vert-adv-y="2457" d="M68 0v133h141v766h-137v143h72q143 0 202 44h43v-173q156 148 306 166v-182q-181 -18 -306 -88v-676h158v-133h-479zM314 1200l137 348h201l-180 -348h-158z" />
<glyph unicode="&#x156;" horiz-adv-x="1194" vert-adv-y="2457" d="M180 0v1489h438q169 0 271 -66q94 -61 129 -168q22 -64 22 -170q0 -129 -38 -206q-48 -98 -148 -147q-39 -19 -115 -38q41 -25 68 -54q31 -34 69 -103l295 -537h-205l-268 493q-57 104 -107 138q-42 28 -129 28h-94v-659h-188zM368 811h225q139 0 199 67q51 56 51 195 q0 103 -22 155q-47 107 -224 107h-229v-524zM422 -430l158 348h155l-106 -348h-207z" />
<glyph unicode="&#x157;" horiz-adv-x="743" vert-adv-y="2457" d="M68 0v133h141v766h-137v143h72q143 0 202 44h43v-173q156 148 306 166v-182q-181 -18 -306 -88v-676h158v-133h-479zM89 -430l158 348h155l-106 -348h-207z" />
<glyph unicode="&#x158;" horiz-adv-x="1194" vert-adv-y="2457" d="M180 0v1489h438q169 0 271 -66q94 -61 129 -168q22 -64 22 -170q0 -129 -38 -206q-48 -98 -148 -147q-39 -19 -115 -38q41 -25 68 -54q31 -34 69 -103l295 -537h-205l-268 493q-57 104 -107 138q-42 28 -129 28h-94v-659h-188zM368 811h225q139 0 199 67q51 56 51 195 q0 103 -22 155q-47 107 -224 107h-229v-524zM485 1610l-197 321h143l142 -186l139 186h145l-196 -321h-176z" />
<glyph unicode="&#x159;" horiz-adv-x="743" vert-adv-y="2457" d="M68 0v133h141v766h-137v143h72q143 0 202 44h43v-173q156 148 306 166v-182q-181 -18 -306 -88v-676h158v-133h-479zM330 1210l-197 326h143l142 -191l139 191h145l-196 -326h-176z" />
<glyph unicode="&#x15a;" horiz-adv-x="975" vert-adv-y="2457" d="M70 59v168q191 -104 355 -104q144 0 217 73q61 61 61 169q0 113 -71 186q-48 49 -201 148q-141 90 -207 154q-121 118 -121 295q0 189 136 291q111 85 287 85q166 0 306 -68v-166q-168 82 -311 82q-121 0 -186 -63q-54 -51 -54 -149q0 -105 61 -172q46 -50 172 -128 q187 -115 264 -196q113 -118 113 -288q0 -194 -133 -304q-122 -101 -327 -101q-177 0 -361 88zM432 1612l129 319h201l-172 -319h-158z" />
<glyph unicode="&#x15b;" horiz-adv-x="836" vert-adv-y="2457" d="M100 39v156q63 -30 93 -41q86 -32 184 -32q102 0 151 37q45 33 45 107q0 57 -31 95q-30 38 -164 101q-151 72 -203 131q-65 74 -65 192q0 130 81 206q89 84 256 84q124 0 251 -49v-158q-144 60 -249 60q-173 0 -173 -128q0 -58 29 -93q19 -23 47 -40q24 -15 108 -53 q149 -66 212 -131q75 -76 75 -199q0 -150 -102 -232q-93 -75 -262 -75q-144 0 -283 62zM353 1200l137 348h201l-180 -348h-158z" />
<glyph unicode="&#x15c;" horiz-adv-x="975" vert-adv-y="2457" d="M70 59v168q191 -104 355 -104q144 0 217 73q61 61 61 169q0 113 -71 186q-48 49 -201 148q-141 90 -207 154q-121 118 -121 295q0 189 136 291q111 85 287 85q166 0 306 -68v-166q-168 82 -311 82q-121 0 -186 -63q-54 -51 -54 -149q0 -105 61 -172q46 -50 172 -128 q187 -115 264 -196q113 -118 113 -288q0 -194 -133 -304q-122 -101 -327 -101q-177 0 -361 88zM237 1610l197 321h176l196 -321h-145l-139 186l-142 -186h-143z" />
<glyph unicode="&#x15d;" horiz-adv-x="836" vert-adv-y="2457" d="M100 39v156q63 -30 93 -41q86 -32 184 -32q102 0 151 37q45 33 45 107q0 57 -31 95q-30 38 -164 101q-151 72 -203 131q-65 74 -65 192q0 130 81 206q89 84 256 84q124 0 251 -49v-158q-144 60 -249 60q-173 0 -173 -128q0 -58 29 -93q19 -23 47 -40q24 -15 108 -53 q149 -66 212 -131q75 -76 75 -199q0 -150 -102 -232q-93 -75 -262 -75q-144 0 -283 62zM163 1210l197 326h176l196 -326h-145l-139 191l-142 -191h-143z" />
<glyph unicode="&#x15e;" horiz-adv-x="975" vert-adv-y="2457" d="M523 -23l-90 -325h-185l123 322q-145 11 -301 86v167q191 -104 355 -104q144 0 217 73q61 61 61 169q0 113 -71 186q-48 49 -201 148q-141 90 -207 154q-121 118 -121 295q0 189 136 291q111 85 287 85q166 0 306 -68v-166q-168 82 -311 82q-121 0 -186 -63 q-54 -51 -54 -149q0 -105 61 -172q46 -49 172 -128q187 -115 264 -196q113 -118 113 -288q0 -193 -133 -304q-86 -72 -235 -95z" />
<glyph unicode="&#x15f;" horiz-adv-x="836" vert-adv-y="2457" d="M510 -9l-93 -339h-185l125 326q-128 4 -257 61v156q61 -29 93 -41q86 -31 184 -31q102 0 151 36q45 34 45 108q0 57 -31 95t-164 101q-151 71 -203 130q-65 74 -65 193q0 129 81 206q89 83 256 83q124 0 251 -49v-158q-144 60 -249 60q-173 0 -173 -128q0 -58 29 -93 q19 -22 47 -40q24 -15 108 -52q149 -67 212 -131q75 -77 75 -200q0 -150 -102 -231q-56 -46 -135 -62z" />
<glyph unicode="&#x160;" horiz-adv-x="975" vert-adv-y="2457" d="M70 59v168q191 -104 355 -104q144 0 217 73q61 61 61 169q0 113 -71 186q-48 49 -201 148q-141 90 -207 154q-121 118 -121 295q0 189 136 291q111 85 287 85q166 0 306 -68v-166q-168 82 -311 82q-121 0 -186 -63q-54 -51 -54 -149q0 -105 61 -172q46 -50 172 -128 q187 -115 264 -196q113 -118 113 -288q0 -194 -133 -304q-122 -101 -327 -101q-177 0 -361 88zM436 1610l-197 321h143l142 -186l139 186h145l-196 -321h-176z" />
<glyph unicode="&#x161;" horiz-adv-x="836" vert-adv-y="2457" d="M100 39v156q63 -30 93 -41q86 -32 184 -32q102 0 151 37q45 33 45 107q0 57 -31 95q-30 38 -164 101q-151 72 -203 131q-65 74 -65 192q0 130 81 206q89 84 256 84q124 0 251 -49v-158q-144 60 -249 60q-173 0 -173 -128q0 -58 29 -93q19 -23 47 -40q24 -15 108 -53 q149 -66 212 -131q75 -76 75 -199q0 -150 -102 -232q-93 -75 -262 -75q-144 0 -283 62zM360 1210l-197 326h143l142 -191l139 191h145l-196 -326h-176z" />
<glyph unicode="&#x162;" horiz-adv-x="1094" vert-adv-y="2457" d="M1018 1489v-154h-379v-1335h-186v1335h-381l12 154h934zM318 -430l158 348h155l-106 -348h-207z" />
<glyph unicode="&#x163;" horiz-adv-x="709" vert-adv-y="2457" d="M657 10q-83 -33 -161 -33q-185 0 -253 120q-43 76 -43 204v623h-141v137h37q66 0 93 27q29 28 48 100l26 102h117v-229h252v-137h-252v-634q0 -84 25 -121q32 -49 121 -49q54 0 131 27v-137zM161 -430l158 348h155l-106 -348h-207z" />
<glyph unicode="&#x164;" horiz-adv-x="1094" vert-adv-y="2457" d="M1018 1489v-154h-379v-1335h-186v1335h-381l12 154h934zM459 1610l-197 321h143l142 -186l139 186h145l-196 -321h-176z" />
<glyph unicode="&#x165;" horiz-adv-x="768" vert-adv-y="2457" d="M657 10q-83 -33 -161 -33q-185 0 -253 120q-43 76 -43 204v623h-141v137h37q66 0 93 27q29 28 48 100l26 102h117v-229h252v-137h-252v-634q0 -84 25 -121q32 -49 121 -49q54 0 131 27v-137zM544 1214l66 377h196l-117 -377h-145z" />
<glyph unicode="&#x16a;" horiz-adv-x="1327" vert-adv-y="2457" d="M160 1489h195v-995q0 -174 56 -262q74 -116 267 -116q194 0 268 126q52 90 52 256v991h168v-987q0 -533 -490 -533q-309 0 -438 198q-78 121 -78 327v995zM429 1671v152h494v-152h-494z" />
<glyph unicode="&#x16b;" horiz-adv-x="1040" vert-adv-y="2457" d="M733 131q-71 -67 -125 -100q-99 -60 -210 -60q-261 0 -261 314v766l180 12v-773q0 -82 22 -118q33 -56 113 -56q79 0 163 45q40 21 100 62v828l180 12v-1063h-123zM269 1288v152h494v-152h-494z" />
<glyph unicode="&#x16c;" horiz-adv-x="1327" vert-adv-y="2457" d="M156 1489h195v-995q0 -174 56 -262q74 -116 267 -116q194 0 268 126q52 90 52 256v991h168v-987q0 -533 -490 -533q-309 0 -438 198q-78 121 -78 327v995zM933 1894q-7 -127 -75 -194q-71 -70 -185 -70q-115 0 -187 71q-68 68 -75 193h135q13 -127 127 -127 q111 0 127 127h133z" />
<glyph unicode="&#x16d;" horiz-adv-x="1040" vert-adv-y="2457" d="M733 131q-71 -67 -125 -100q-99 -60 -210 -60q-261 0 -261 314v766l180 12v-773q0 -82 22 -118q33 -56 113 -56q79 0 163 45q40 21 100 62v828l180 12v-1063h-123zM777 1499q-7 -127 -75 -193q-71 -71 -185 -71q-115 0 -187 72q-68 67 -75 192h135q14 -127 127 -127 q110 0 127 127h133z" />
<glyph unicode="&#x16e;" horiz-adv-x="1327" vert-adv-y="2457" d="M160 1489h195v-995q0 -174 56 -262q74 -116 267 -116q194 0 268 126q52 90 52 256v991h168v-987q0 -533 -490 -533q-309 0 -438 198q-78 121 -78 327v995zM676 1997q98 0 158 -60q53 -54 53 -137q0 -81 -53 -136q-60 -60 -157 -60q-99 0 -159 60q-53 55 -53 139 q0 81 53 134q61 60 158 60zM676 1909q-52 0 -79 -36q-21 -28 -21 -71q0 -46 21 -74q27 -36 79 -36q51 0 79 36q21 28 21 72q0 46 -21 73q-28 36 -79 36z" />
<glyph unicode="&#x16f;" horiz-adv-x="1040" vert-adv-y="2457" d="M733 131q-71 -67 -125 -100q-99 -60 -210 -60q-261 0 -261 314v766l180 12v-773q0 -82 22 -118q33 -56 113 -56q79 0 163 45q40 21 100 62v828l180 12v-1063h-123zM516 1614q98 0 158 -60q53 -54 53 -137q0 -81 -53 -136q-60 -60 -157 -60q-99 0 -159 60q-53 54 -53 139 q0 81 53 134q61 60 158 60zM516 1526q-52 0 -79 -36q-21 -28 -21 -71q0 -46 21 -74q27 -36 79 -36q51 0 79 36q21 28 21 72q0 46 -21 73q-28 36 -79 36z" />
<glyph unicode="&#x170;" horiz-adv-x="1327" vert-adv-y="2457" d="M160 1489h195v-995q0 -174 56 -262q74 -116 267 -116q194 0 268 126q52 90 52 256v991h168v-987q0 -533 -490 -533q-309 0 -438 198q-78 121 -78 327v995zM753 1612l90 319h176l-121 -319h-145zM452 1612l90 319h174l-121 -319h-143z" />
<glyph unicode="&#x171;" horiz-adv-x="1040" vert-adv-y="2457" d="M733 131q-71 -67 -125 -100q-99 -60 -210 -60q-261 0 -261 314v766l180 12v-773q0 -82 22 -118q33 -56 113 -56q79 0 163 45q40 21 100 62v828l180 12v-1063h-123zM588 1200l98 348h176l-129 -348h-145zM287 1200l98 348h174l-129 -348h-143z" />
<glyph unicode="&#x172;" horiz-adv-x="1327" vert-adv-y="2457" d="M786 -23q-59 -107 -59 -177q0 -91 91 -91q32 0 77 15v-131q-58 -19 -104 -19q-92 0 -153 47q-64 48 -64 137q0 94 90 212q-251 -1 -382 142q-85 92 -109 226q-13 75 -13 156v995h195v-995q0 -173 56 -261q74 -116 267 -116t268 126q52 89 52 255v991h168v-987 q0 -470 -380 -525z" />
<glyph unicode="&#x173;" horiz-adv-x="1040" vert-adv-y="2457" d="M895 0q-85 -126 -85 -200q0 -91 90 -91q31 0 77 15v-132q-58 -18 -104 -18q-92 0 -153 47q-64 48 -64 136q0 111 131 243l-54 131q-71 -67 -125 -100q-99 -60 -210 -60q-261 0 -261 314v766l180 12v-773q0 -82 22 -118q33 -56 113 -56q79 0 163 45q40 21 100 62v828 l180 12v-1063z" />
<glyph unicode="&#x174;" horiz-adv-x="1640" vert-adv-y="2457" d="M532 0h-137l-344 1489h193l243 -1106l291 1106h115l278 -1106l256 1106h160l-350 -1489h-137l-277 1110zM535 1610l197 321h176l196 -321h-145l-139 186l-142 -186h-143z" />
<glyph unicode="&#x176;" horiz-adv-x="1171" vert-adv-y="2457" d="M702 0h-188v600l-440 889h202l344 -707l316 707h178l-412 -887v-602zM322 1610l197 321h176l196 -321h-145l-139 186l-142 -186h-143z" />
<glyph unicode="&#x177;" horiz-adv-x="948" vert-adv-y="2457" d="M187 -414l213 533l-367 942h190l265 -709l260 709h168l-561 -1475h-168zM190 1210l197 326h176l196 -326h-145l-139 191l-142 -191h-143z" />
<glyph unicode="&#x178;" horiz-adv-x="1171" vert-adv-y="2457" d="M702 0h-188v600l-440 889h202l344 -707l316 707h178l-412 -887v-602zM432 1866q50 0 82 -33q29 -30 29 -77q0 -48 -29 -78q-32 -33 -81 -33q-50 0 -82 33q-29 30 -29 79q0 46 29 76q33 33 81 33zM780 1866q50 0 82 -33q29 -30 29 -77q0 -48 -29 -78q-32 -33 -81 -33 q-50 0 -82 33q-29 30 -29 79q0 46 29 76q33 33 81 33z" />
<glyph unicode="&#x179;" horiz-adv-x="1102" vert-adv-y="2457" d="M80 0v117l707 1218h-658l12 154h867v-117l-707 -1218h707l-12 -154h-916zM483 1612l129 319h201l-172 -319h-158z" />
<glyph unicode="&#x17a;" horiz-adv-x="866" vert-adv-y="2457" d="M72 0v104l510 820h-465v137h678v-102l-508 -822h506v-137h-721zM394 1200l137 348h201l-180 -348h-158z" />
<glyph unicode="&#x17b;" horiz-adv-x="1102" vert-adv-y="2457" d="M80 0v117l707 1218h-658l12 154h867v-117l-707 -1218h707l-12 -154h-916zM606 1876q54 0 90 -36q32 -34 32 -86t-32 -85q-36 -37 -90 -37t-90 37q-32 33 -32 87q0 51 32 84q36 36 90 36z" />
<glyph unicode="&#x17c;" horiz-adv-x="866" vert-adv-y="2457" d="M72 0v104l510 820h-465v137h678v-102l-508 -822h506v-137h-721zM488 1494q54 0 90 -37q32 -33 32 -85t-32 -85q-36 -37 -90 -37t-90 37q-32 33 -32 87q0 51 32 83q36 37 90 37z" />
<glyph unicode="&#x17d;" horiz-adv-x="1102" vert-adv-y="2457" d="M80 0v117l707 1218h-658l12 154h867v-117l-707 -1218h707l-12 -154h-916zM504 1610l-197 321h143l142 -186l139 186h145l-196 -321h-176z" />
<glyph unicode="&#x17e;" horiz-adv-x="866" vert-adv-y="2457" d="M72 0v104l510 820h-465v137h678v-102l-508 -822h506v-137h-721zM388 1210l-197 326h143l142 -191l139 191h145l-196 -326h-176z" />
<glyph unicode="&#x192;" vert-adv-y="2457" d="M229 676v137h182l27 244q19 177 94 276q86 113 264 113h115v-147q-48 8 -83 8q-108 0 -156 -62q-41 -51 -54 -174l-28 -258h229v-137h-246l-117 -1090h-182l121 1090h-166z" />
<glyph unicode="&#x1cd;" horiz-adv-x="1204" vert-adv-y="2457" d="M1153 0h-205l-129 434h-465l-133 -434h-172l485 1497h144zM772 588l-182 616l-189 -616h371zM514 1610l-197 321h143l142 -186l139 186h145l-196 -321h-176z" />
<glyph unicode="&#x1ce;" horiz-adv-x="979" vert-adv-y="2457" d="M942 10q-65 -24 -119 -24q-134 0 -172 133q-126 -152 -276 -152q-123 0 -199 77q-78 78 -78 228q0 156 71 227q54 54 162 78q81 19 314 38v116q0 104 -45 152q-42 46 -133 46q-129 0 -310 -81v152q169 79 328 79q340 0 340 -346v-526q0 -47 15 -63q15 -17 54 -17 q22 0 48 8v-125zM645 498l-27 -3q-195 -19 -248 -40q-65 -25 -83 -85q-11 -35 -11 -94q0 -170 146 -170q116 0 223 130v262zM401 1210l-197 326h143l142 -191l139 191h145l-196 -326h-176z" />
<glyph unicode="&#x1d3;" horiz-adv-x="1327" vert-adv-y="2457" d="M160 1489h195v-995q0 -174 56 -262q74 -116 267 -116q194 0 268 126q52 90 52 256v991h168v-987q0 -533 -490 -533q-309 0 -438 198q-78 121 -78 327v995zM588 1610l-197 321h143l142 -186l139 186h145l-196 -321h-176z" />
<glyph unicode="&#x1e6;" horiz-adv-x="1257" vert-adv-y="2457" d="M712 569v152h420v-651q-211 -101 -416 -101q-365 0 -518 261q-100 171 -100 450v117q0 269 105 447q166 280 530 280q192 0 338 -66v-166q-177 78 -339 78q-433 0 -433 -561v-139q0 -240 76 -373q100 -174 347 -174q117 0 224 39v407h-234zM619 1610l-197 321h143 l142 -186l139 186h145l-196 -321h-176z" />
<glyph unicode="&#x1e7;" horiz-adv-x="956" vert-adv-y="2457" d="M316 375q-37 -54 -37 -99q0 -92 137 -92h97q195 0 287 -48q122 -64 122 -239q0 -331 -446 -331q-208 0 -324 73q-111 69 -111 195q0 153 174 254q-86 48 -86 136q0 97 103 196q-121 99 -121 292q0 196 117 290q94 77 251 77q75 0 140 -18h315v-104h-27q-70 0 -124 -19 q51 -94 51 -216q0 -192 -105 -288q-93 -84 -256 -84q-85 0 -157 25zM471 948q-102 0 -146 -61q-38 -53 -38 -169q0 -133 46 -184t138 -51q103 0 147 62q38 52 38 171q0 130 -45 183q-43 49 -140 49zM309 53q-98 -84 -98 -196q0 -81 64 -118q68 -38 202 -38q181 0 243 71 q34 39 34 120q0 102 -73 133q-44 20 -126 20h-149q-54 0 -97 8zM403 1210l-197 326h143l142 -191l139 191h145l-196 -326h-176z" />
<glyph unicode="&#x1f4;" horiz-adv-x="1257" vert-adv-y="2457" d="M712 569v152h420v-651q-211 -101 -416 -101q-365 0 -518 261q-100 171 -100 450v117q0 269 105 447q166 280 530 280q192 0 338 -66v-166q-177 78 -339 78q-433 0 -433 -561v-139q0 -240 76 -373q100 -174 347 -174q117 0 224 39v407h-234zM609 1612l129 319h201 l-172 -319h-158z" />
<glyph unicode="&#x218;" horiz-adv-x="975" vert-adv-y="2457" d="M66 59v168q191 -104 355 -104q144 0 217 73q61 61 61 169q0 113 -71 186q-48 49 -201 148q-141 90 -207 154q-121 118 -121 295q0 189 136 291q111 85 287 85q166 0 306 -68v-166q-168 82 -311 82q-121 0 -186 -63q-54 -51 -54 -149q0 -105 61 -172q46 -50 172 -128 q187 -115 264 -196q113 -118 113 -288q0 -194 -133 -304q-122 -101 -327 -101q-177 0 -361 88zM239 -430l158 348h155l-106 -348h-207z" />
<glyph unicode="&#x219;" horiz-adv-x="836" vert-adv-y="2457" d="M100 39v156q63 -30 93 -41q86 -32 184 -32q102 0 151 37q45 33 45 107q0 57 -31 95q-30 38 -164 101q-151 72 -203 131q-65 74 -65 192q0 130 81 206q89 84 256 84q124 0 251 -49v-158q-144 60 -249 60q-173 0 -173 -128q0 -58 29 -93q19 -23 47 -40q24 -15 108 -53 q149 -66 212 -131q75 -76 75 -199q0 -150 -102 -232q-93 -75 -262 -75q-144 0 -283 62zM171 -430l158 348h155l-106 -348h-207z" />
<glyph unicode="&#x21a;" horiz-adv-x="1094" vert-adv-y="2457" d="M1018 1489v-154h-379v-1335h-186v1335h-381l12 154h934zM318 -430l158 348h155l-106 -348h-207z" />
<glyph unicode="&#x21b;" horiz-adv-x="709" vert-adv-y="2457" d="M657 10q-83 -33 -161 -33q-185 0 -253 120q-43 76 -43 204v623h-141v137h37q66 0 93 27q29 28 48 100l26 102h117v-229h252v-137h-252v-634q0 -84 25 -121q32 -49 121 -49q54 0 131 27v-137zM161 -430l158 348h155l-106 -348h-207z" />
<glyph unicode="&#x2bc;" horiz-adv-x="473" vert-adv-y="2457" d="M247 1321q-15 -1 -22 -1q-123 0 -123 108q0 54 35 86q34 32 87 32q78 0 117 -64q29 -46 29 -116q0 -144 -103 -229q-67 -55 -165 -68v86q128 39 145 166z" />
<glyph unicode="&#x2c6;" horiz-adv-x="1024" vert-adv-y="2457" d="M227 1210l197 326h176l196 -326h-145l-139 191l-142 -191h-143z" />
<glyph unicode="&#x2c7;" horiz-adv-x="1024" vert-adv-y="2457" d="M424 1210l-197 326h143l142 -191l139 191h145l-196 -326h-176z" />
<glyph unicode="&#x2c9;" horiz-adv-x="1024" vert-adv-y="2457" d="M265 1288v152h494v-152h-494z" />
<glyph unicode="&#x2d8;" horiz-adv-x="1024" vert-adv-y="2457" d="M773 1499q-7 -127 -75 -193q-71 -71 -185 -71q-115 0 -187 72q-68 67 -75 192h135q14 -127 127 -127q110 0 127 127h133z" />
<glyph unicode="&#x2d9;" horiz-adv-x="1024" vert-adv-y="2457" d="M512 1494q54 0 90 -37q32 -33 32 -85t-32 -85q-36 -37 -90 -37t-90 37q-32 33 -32 87q0 51 32 83q36 37 90 37z" />
<glyph unicode="&#x2da;" horiz-adv-x="1024" vert-adv-y="2457" d="M512 1614q98 0 158 -60q53 -54 53 -137q0 -81 -53 -136q-60 -60 -157 -60q-99 0 -159 60q-53 54 -53 139q0 81 53 134q61 60 158 60zM512 1526q-52 0 -79 -36q-21 -28 -21 -71q0 -46 21 -74q27 -36 79 -36q51 0 79 36q21 28 21 72q0 46 -21 73q-28 36 -79 36z" />
<glyph unicode="&#x2db;" horiz-adv-x="1024" vert-adv-y="2457" d="M736 -408q-58 -18 -104 -18q-93 0 -154 47q-64 48 -64 137q0 111 117 242h109q-72 -128 -72 -199q0 -92 91 -92q30 0 77 15v-132z" />
<glyph unicode="&#x2dc;" horiz-adv-x="1024" vert-adv-y="2457" d="M296 1247l-84 64q93 160 205 160q43 0 111 -29q58 -25 88 -25q56 0 110 76l84 -61q-89 -162 -201 -162q-44 0 -113 29q-59 25 -92 25q-53 0 -108 -77z" />
<glyph unicode="&#x2dd;" horiz-adv-x="1024" vert-adv-y="2457" d="M580 1200l98 348h176l-129 -348h-145zM279 1200l98 348h174l-129 -348h-143z" />
<glyph unicode="&#x387;" horiz-adv-x="563" vert-adv-y="2457" d="M281 815q60 0 99 -40q36 -38 36 -95t-36 -95q-38 -40 -99 -40q-60 0 -99 40q-36 38 -36 97q0 56 36 93q40 40 99 40z" />
<glyph unicode="&#x1e84;" horiz-adv-x="1640" vert-adv-y="2457" d="M532 0h-137l-344 1489h193l243 -1106l291 1106h115l278 -1106l256 1106h160l-350 -1489h-137l-277 1110zM645 1866q50 0 82 -33q29 -30 29 -77q0 -48 -29 -78q-32 -33 -81 -33q-50 0 -82 33q-29 30 -29 79q0 46 29 76q33 33 81 33zM993 1866q50 0 82 -33q29 -30 29 -77 q0 -48 -29 -78q-32 -33 -81 -33q-50 0 -82 33q-29 30 -29 79q0 46 29 76q33 33 81 33z" />
<glyph unicode="&#x2011;" horiz-adv-x="563" vert-adv-y="2457" d="M50 604v154h463v-154h-463z" />
<glyph unicode="&#x2012;" vert-adv-y="2457" d="M216 611v147h694v-147h-694z" />
<glyph unicode="&#x2013;" vert-adv-y="2457" d="M216 611v147h694v-147h-694z" />
<glyph unicode="&#x2014;" horiz-adv-x="1690" vert-adv-y="2457" d="M211 611v147h1270v-147h-1270z" />
<glyph unicode="&#x2015;" horiz-adv-x="1690" vert-adv-y="2457" d="M211 611v147h1270v-147h-1270z" />
<glyph unicode="&#x2017;" horiz-adv-x="563" vert-adv-y="2457" d="M-66 -463v104h694v-104h-694zM-66 -279v104h694v-104h-694z" />
<glyph unicode="&#x2018;" horiz-adv-x="473" vert-adv-y="2457" d="M225 1294q13 1 22 1q123 0 123 -108q0 -54 -35 -86q-34 -32 -87 -32q-78 0 -117 64q-29 46 -29 117q0 143 103 229q67 55 165 67v-86q-128 -39 -145 -166z" />
<glyph unicode="&#x2019;" horiz-adv-x="473" vert-adv-y="2457" d="M247 1321q-16 -1 -22 -1q-123 0 -123 108q0 54 35 86q34 32 87 32q78 0 117 -64q29 -46 29 -116q0 -144 -103 -229q-67 -55 -165 -68v86q128 39 145 166z" />
<glyph unicode="&#x201a;" horiz-adv-x="473" vert-adv-y="2457" d="M247 20h-22q-123 0 -123 108q0 54 35 86q34 32 87 32q78 0 117 -64q29 -46 29 -117q0 -143 -103 -229q-67 -55 -165 -67v86q128 39 145 165z" />
<glyph unicode="&#x201c;" horiz-adv-x="854" vert-adv-y="2457" d="M225 1294q13 1 22 1q123 0 123 -108q0 -54 -35 -86q-34 -32 -87 -32q-78 0 -117 64q-29 46 -29 117q0 143 103 229q67 55 165 67v-86q-128 -39 -145 -166zM606 1294q13 1 22 1q123 0 123 -108q0 -55 -35 -86q-34 -32 -87 -32q-78 0 -118 64q-28 46 -28 117q0 143 103 229 q67 55 165 67v-86q-128 -39 -145 -166z" />
<glyph unicode="&#x201d;" horiz-adv-x="854" vert-adv-y="2457" d="M247 1321q-15 -1 -22 -1q-123 0 -123 108q0 54 35 86q34 32 87 32q78 0 117 -64q29 -46 29 -116q0 -144 -103 -229q-67 -55 -165 -68v86q128 39 145 166zM628 1321q-15 -1 -22 -1q-123 0 -123 108q0 55 35 86q34 32 87 32q78 0 118 -64q28 -45 28 -116q0 -144 -103 -229 q-67 -55 -165 -68v86q128 39 145 166z" />
<glyph unicode="&#x201e;" horiz-adv-x="854" vert-adv-y="2457" d="M247 20h-22q-123 0 -123 108q0 54 35 86q34 32 87 32q78 0 117 -64q29 -46 29 -117q0 -143 -103 -229q-67 -55 -165 -67v86q128 39 145 165zM628 20h-22q-123 0 -123 108q0 55 35 86q34 32 87 32q78 0 118 -64q28 -46 28 -117q0 -143 -103 -229q-67 -55 -165 -67v86 q128 39 145 165z" />
<glyph unicode="&#x2020;" vert-adv-y="2457" d="M480 931h-283l10 152h273v406h168v-406h290v-152h-290v-1136h-168v1136z" />
<glyph unicode="&#x2021;" vert-adv-y="2457" d="M479 931h-283l10 152h273v406h168v-406h291v-152h-291v-578h283l-10 -152h-273v-406h-168v406h-291v152h291v578z" />
<glyph unicode="&#x2022;" horiz-adv-x="1229" vert-adv-y="2457" d="M614 1013q133 0 223 -93q84 -87 84 -214q0 -126 -84 -214q-90 -93 -222 -93q-134 0 -224 93q-84 88 -84 218q0 125 84 210q92 93 223 93z" />
<glyph unicode="&#x2026;" horiz-adv-x="1690" vert-adv-y="2457" d="M282 245q60 0 99 -40q36 -38 36 -95t-36 -94q-39 -41 -99 -41t-99 41q-36 37 -36 96q0 56 36 93q40 40 99 40zM845 245q61 0 99 -40q36 -38 36 -95t-36 -94q-38 -41 -98 -41q-61 0 -100 41q-36 37 -36 96q0 56 36 93q40 40 99 40zM1408 245q60 0 99 -40q36 -38 36 -95 t-36 -94q-39 -41 -99 -41t-99 41q-36 37 -36 96q0 56 36 93q40 40 99 40z" />
<glyph unicode="&#x2030;" horiz-adv-x="2060" vert-adv-y="2457" d="M61 1081v54q0 159 66 246q74 98 210 98q137 0 211 -98q66 -87 66 -246v-54q0 -159 -66 -246q-74 -98 -211 -98q-136 0 -210 98q-66 87 -66 246zM460 1079v58q0 114 -22 164q-26 59 -101 59q-79 0 -105 -71q-17 -48 -17 -152v-58q0 -114 22 -164q26 -59 100 -59 q80 0 106 71q17 49 17 152zM151 0l967 1446h135l-967 -1446h-135zM790 317v54q0 159 66 246q74 98 211 98q136 0 210 -98q66 -87 66 -246v-54q0 -159 -66 -246q-74 -98 -210 -98t-211 98q-66 86 -66 246zM1189 315v58q0 114 -22 164q-26 59 -100 59q-80 0 -106 -71 q-17 -48 -17 -152v-58q0 -114 22 -164q26 -59 101 -59q79 0 105 71q17 48 17 152zM1445 317v54q0 159 66 246q74 98 211 98t211 -98q65 -87 65 -246v-54q0 -159 -65 -246q-75 -98 -211 -98t-211 98q-66 86 -66 246zM1845 315v58q0 114 -23 164q-26 59 -100 59 q-80 0 -105 -71q-18 -48 -18 -152v-58q0 -114 22 -164q27 -59 101 -59q80 0 105 71q18 48 18 152z" />
<glyph unicode="&#x2039;" horiz-adv-x="539" vert-adv-y="2457" d="M463 977l-209 -436l209 -437h-131l-248 391v89l248 393h131z" />
<glyph unicode="&#x203a;" horiz-adv-x="539" vert-adv-y="2457" d="M76 104l209 437l-209 436h131l248 -391v-88l-248 -394h-131z" />
<glyph unicode="&#x203e;" horiz-adv-x="563" vert-adv-y="2457" d="M-66 1733v145h694v-145h-694z" />
<glyph unicode="&#x2044;" horiz-adv-x="215" vert-adv-y="2457" d="M-403 0l881 1446h141l-881 -1446h-141z" />
<glyph unicode="&#x2070;" horiz-adv-x="737" vert-adv-y="2457" d="M67 928v177q0 362 301 362q302 0 302 -362v-177q0 -362 -302 -362q-301 0 -301 362zM513 943v147q0 138 -30 201q-33 68 -115 68t-115 -68q-30 -62 -30 -201v-147q0 -138 30 -201q33 -68 115 -68t115 68q30 63 30 201z" />
<glyph unicode="&#x2074;" horiz-adv-x="737" vert-adv-y="2457" d="M580 584h-146v185h-384v78l363 644h151l-345 -617h215v285l146 21v-306h102v-105h-102v-185z" />
<glyph unicode="&#x2075;" horiz-adv-x="737" vert-adv-y="2457" d="M608 1334h-301l-26 -222q41 8 82 8q246 0 246 -247q0 -133 -79 -212q-86 -87 -256 -115q-47 -8 -169 -16v120q169 9 247 47q68 33 93 89q15 33 15 88q0 74 -36 104q-35 30 -109 30q-58 0 -177 -31l57 469h426z" />
<glyph unicode="&#x2076;" horiz-adv-x="737" vert-adv-y="2457" d="M241 1083q76 44 166 44q132 0 197 -73q56 -64 56 -195q0 -129 -49 -194q-75 -99 -231 -99q-297 0 -297 392v70q0 236 144 355q101 83 253 105q45 7 114 12v-120q-154 -10 -234 -64q-104 -69 -119 -233zM239 965v-21q0 -128 28 -191q33 -77 117 -77q65 0 96 48 q26 39 26 131q0 94 -26 127q-30 37 -96 37q-75 0 -145 -54z" />
<glyph unicode="&#x2077;" horiz-adv-x="737" vert-adv-y="2457" d="M138 532l359 802h-416l10 112h552v-86l-351 -828h-154z" />
<glyph unicode="&#x2078;" horiz-adv-x="737" vert-adv-y="2457" d="M511 1044q65 -33 95 -65q55 -57 55 -157q0 -111 -62 -175q-78 -81 -229 -81q-134 0 -215 63q-79 61 -79 187q0 106 73 172q21 19 76 50q-44 28 -70 55q-54 57 -54 149q0 100 62 158q72 67 213 67q260 0 260 -216q0 -92 -61 -155q-25 -26 -64 -52zM334 983 q-108 -55 -108 -172q0 -62 37 -96q41 -39 109 -39t107 40q32 33 32 88q0 82 -75 129q-22 14 -66 34zM404 1096q82 59 82 148q0 115 -119 115q-54 0 -86 -29q-30 -28 -30 -77q0 -66 68 -112q21 -13 49 -28q35 -17 36 -17z" />
<glyph unicode="&#x2079;" horiz-adv-x="737" vert-adv-y="2457" d="M496 950q-74 -43 -165 -43q-133 0 -198 73q-56 63 -56 194q0 129 49 194q76 99 231 99q297 0 297 -392v-70q0 -235 -150 -355q-128 -101 -380 -116v119q156 11 238 59q118 69 134 238zM498 1068v22q0 124 -26 186q-34 81 -119 81q-77 0 -106 -64q-16 -34 -16 -118 q0 -97 33 -130q29 -30 90 -30q74 0 144 53z" />
<glyph unicode="&#x2080;" horiz-adv-x="737" vert-adv-y="2457" d="M67 345v176q0 363 301 363q302 0 302 -363v-176q0 -363 -302 -363q-301 0 -301 363zM513 360v146q0 139 -30 202q-33 68 -115 68t-115 -68q-30 -63 -30 -202v-146q0 -139 30 -202q34 -68 115 -68q82 0 115 68q30 63 30 202z" />
<glyph unicode="&#x2081;" horiz-adv-x="737" vert-adv-y="2457" d="M153 0v100h164v623l-172 -63v110l234 98h86v-768h152v-100h-464z" />
<glyph unicode="&#x2082;" horiz-adv-x="737" vert-adv-y="2457" d="M84 0v87l23 22q202 186 278 281q91 112 91 228q0 77 -30 111q-33 38 -101 38q-70 0 -136 -31q-34 -17 -92 -54v135q109 66 236 66q276 0 276 -262q0 -138 -96 -256q-71 -88 -255 -252h363l-11 -113h-546z" />
<glyph unicode="&#x2083;" horiz-adv-x="737" vert-adv-y="2457" d="M84 -53v119q112 6 161 15q130 25 187 83q45 47 45 130q0 107 -110 107q-47 0 -141 -20v111l46 10q93 19 129 47q48 37 48 114q0 105 -113 105q-78 0 -224 -66v126q122 56 237 56q249 0 249 -213q0 -105 -55 -155q-17 -16 -57 -38q141 -31 141 -182q0 -143 -88 -222 q-98 -88 -293 -115q-47 -7 -162 -12z" />
<glyph unicode="&#x2084;" horiz-adv-x="737" vert-adv-y="2457" d="M580 0h-146v185h-384v78l363 644h151l-345 -617h215v285l146 21v-306h102v-105h-102v-185z" />
<glyph unicode="&#x2085;" horiz-adv-x="737" vert-adv-y="2457" d="M608 750h-301l-26 -223q41 9 82 9q246 0 246 -247q0 -133 -79 -212q-87 -87 -256 -115q-47 -8 -169 -16v120q169 9 247 47q69 33 93 89q15 33 15 88q0 75 -36 104q-35 30 -109 30q-60 0 -177 -31l57 469h426z" />
<glyph unicode="&#x2086;" horiz-adv-x="737" vert-adv-y="2457" d="M241 499q75 44 166 44q132 0 197 -73q56 -64 56 -195q0 -129 -49 -194q-75 -99 -231 -99q-297 0 -297 392v70q0 236 144 355q101 84 253 105q45 7 114 12v-120q-154 -10 -234 -64q-104 -69 -119 -233zM239 382v-22q0 -128 27 -191q34 -77 118 -77q65 0 96 48 q26 39 26 131q0 94 -26 127q-30 37 -96 37q-76 0 -145 -53z" />
<glyph unicode="&#x2087;" horiz-adv-x="737" vert-adv-y="2457" d="M138 -52l359 802h-416l10 112h552v-86l-351 -828h-154z" />
<glyph unicode="&#x2088;" horiz-adv-x="737" vert-adv-y="2457" d="M511 461q65 -34 95 -66q55 -57 55 -157q0 -111 -62 -175q-78 -81 -229 -81q-133 0 -215 63q-79 61 -79 187q0 106 73 172q21 19 76 50q-44 28 -70 55q-54 58 -54 150q0 100 62 158q72 67 213 67q260 0 260 -216q0 -93 -61 -156q-24 -26 -64 -51zM334 399 q-108 -55 -108 -172q0 -62 37 -96q41 -39 109 -39t107 40q32 33 32 88q0 81 -75 129q-22 14 -66 34q-36 17 -36 16zM404 513q82 58 82 148q0 115 -119 115q-54 0 -86 -29q-30 -28 -30 -77q0 -67 68 -112q21 -14 49 -29q35 -17 36 -16z" />
<glyph unicode="&#x2089;" horiz-adv-x="737" vert-adv-y="2457" d="M496 366q-75 -43 -165 -43q-133 0 -198 73q-56 63 -56 195q0 129 49 194q76 99 231 99q297 0 297 -392v-70q0 -236 -150 -355q-128 -102 -380 -117v120q156 10 238 58q118 69 134 238zM498 484v22q0 125 -26 187q-34 81 -119 81q-77 0 -106 -64q-16 -35 -16 -119 q0 -97 33 -130q29 -30 90 -30q74 0 144 53z" />
<glyph unicode="&#x20ac;" vert-adv-y="2457" d="M76 498v131h141v182h-141v131h143q31 541 509 541q137 0 268 -43v-162q-155 53 -267 53q-187 0 -256 -118q-58 -100 -64 -271h365v-131h-367v-182h367v-131h-365q12 -148 43 -220q40 -92 124 -129q59 -26 155 -26q90 0 175 27q37 11 108 41v-160q-138 -62 -295 -62 q-304 0 -420 210q-68 123 -80 319h-143z" />
<glyph unicode="&#x2122;" horiz-adv-x="1434" vert-adv-y="2457" d="M672 801l14 688h147l170 -437l174 437h154v-688h-127v512l-178 -445h-72l-168 435l-8 -502h-106zM247 801v590h-184l6 98h490v-98h-185v-590h-127z" />
<glyph unicode="&#x2126;" horiz-adv-x="1391" vert-adv-y="2457" d="M816 139q151 52 218 205q57 128 57 330v145q0 212 -58 342q-97 216 -337 216q-256 0 -348 -243q-47 -125 -47 -315v-145q0 -229 73 -364q68 -125 202 -171v-139h-506v152l253 -20q-111 89 -162 208q-61 143 -61 346v121q0 271 108 454q93 156 259 221q107 42 229 42 q184 0 322 -89q175 -114 239 -348q35 -128 35 -280v-121q0 -228 -76 -378q-50 -98 -147 -176l252 20v-152h-505v139z" />
<glyph unicode="&#x2202;" vert-adv-y="2457" d="M340 1548h191q203 -177 308 -353q151 -254 151 -554v-178q0 -215 -103 -345q-115 -147 -324 -147t-324 147q-103 130 -103 345v125q0 214 100 349q107 144 291 144q138 0 212 -86q-61 141 -135 252q-97 144 -264 301zM326 604v-158q0 -340 237 -340t237 340v158 q0 340 -239 340q-235 0 -235 -340z" />
<glyph unicode="&#x2206;" vert-adv-y="2457" d="M1115 0h-1104l485 1497h144zM230 154h634l-312 1050z" />
<glyph unicode="&#x220f;" vert-adv-y="2457" d="M63 -332v155l434 889l-399 814v164h941v-149h-736l405 -824l-444 -899h845v-150h-1046z" />
<glyph unicode="&#x2211;" vert-adv-y="2457" d="M1130 1690v-150h-132v-1872h-199v1872h-470v-1872h-199v1872h-133v150h1133z" />
<glyph unicode="&#x2212;" vert-adv-y="2457" d="M155 611v147h817v-147h-817z" />
<glyph unicode="&#x221a;" vert-adv-y="2457" d="M429 0l-204 666h-151v135h296l158 -549l480 1554h582v-132h-442l-520 -1674h-199z" />
<glyph unicode="&#x221e;" horiz-adv-x="1690" vert-adv-y="2457" d="M845 602q-156 -238 -377 -238q-173 0 -266 114q-75 91 -75 235t75 235q93 114 265 114q221 0 378 -238q158 238 378 238q173 0 266 -114q74 -91 74 -235t-74 -235q-93 -114 -266 -114q-219 0 -378 238zM761 713l-10 17q-54 90 -130 150q-70 55 -146 55q-90 0 -141 -62 q-51 -63 -51 -160q0 -103 57 -167q49 -55 135 -55q83 0 169 76q71 62 108 129zM930 713l8 -17q35 -67 126 -143q75 -62 151 -62q87 0 136 56q57 63 57 166q0 97 -52 161q-50 61 -139 61q-80 0 -157 -63q-72 -58 -121 -142z" />
<glyph unicode="&#x222b;" horiz-adv-x="563" vert-adv-y="2457" d="M-27 -332v139q56 -16 100 -16q79 0 99 74q9 30 9 140v1304q0 228 29 292q57 122 244 122q72 0 135 -23v-139q-58 16 -101 16q-79 0 -99 -73q-9 -32 -9 -140v-1304q0 -230 -30 -293q-57 -122 -243 -122q-72 0 -134 23z" />
<glyph unicode="&#x2243;" vert-adv-y="2457" d="M174 446v147h778v-147h-778zM238 719l-82 72q117 170 269 170q59 0 159 -33q85 -27 129 -27q84 0 175 84l81 -72q-120 -172 -267 -172q-61 0 -159 33q-87 29 -134 29q-80 0 -171 -84z" />
<glyph unicode="&#x2248;" vert-adv-y="2457" d="M238 391l-82 72q117 170 269 170q59 0 159 -32q84 -27 129 -27q83 0 175 83l81 -71q-120 -172 -267 -172q-60 0 -159 32q-88 29 -134 29q-80 0 -171 -84zM238 719l-82 72q117 170 269 170q59 0 159 -33q85 -27 129 -27q84 0 175 84l81 -72q-120 -172 -267 -172 q-61 0 -159 33q-87 29 -134 29q-80 0 -171 -84z" />
<glyph unicode="&#x2260;" vert-adv-y="2457" d="M174 775v147h431l121 254l117 -50l-97 -204h206v-147h-276l-86 -182h362v-147h-432l-120 -253l-117 51l96 202h-205v147h275l86 182h-361z" />
<glyph unicode="&#x2264;" vert-adv-y="2457" d="M955 1122v-170l-664 -268l664 -268v-170l-809 346v182zM146 0v147h809v-147h-809z" />
<glyph unicode="&#x2265;" vert-adv-y="2457" d="M171 246v170l664 268l-664 268v170l809 -346v-182zM980 0h-809v147h809v-147z" />
<glyph unicode="&#x22c5;" horiz-adv-x="563" vert-adv-y="2457" d="M281 815q60 0 99 -40q36 -38 36 -95t-36 -95q-38 -40 -99 -40q-60 0 -99 40q-36 38 -36 97q0 56 36 93q40 40 99 40z" />
<glyph unicode="&#x25ca;" vert-adv-y="2457" d="M563 -86l-557 830l557 829l558 -829zM563 191l370 553l-370 552l-369 -552z" />
<glyph unicode="&#xe000;" horiz-adv-x="1060" vert-adv-y="2120" d="M0 1060h1060v-1060h-1060v1060z" />
<glyph unicode="&#xfb00;" horiz-adv-x="1231" vert-adv-y="2457" d="M378 1061h402v85q0 214 98 311q62 61 157 78q38 7 105 7h74v-151q-43 6 -68 6q-108 0 -152 -73q-34 -54 -34 -169v-94h223v-137h-223v-924h-180v924h-402v-924h-180v924h-137v137h137v61q0 214 94 311q59 60 150 78q36 6 101 6h59v-151q-35 6 -55 6q-98 0 -138 -72 q-31 -56 -31 -170v-69z" />
<glyph unicode="&#xfb01;" horiz-adv-x="1114" vert-adv-y="2457" d="M198 1061v85q0 214 94 311q58 61 150 78q36 7 101 7h59v-151q-35 6 -55 6q-98 0 -138 -73q-31 -56 -31 -169v-94h337q142 0 202 25h43v-1086h-180v924h-402v-924h-180v924h-137v137h137zM866 1494q54 0 90 -37q32 -33 32 -85t-32 -85q-36 -37 -90 -37t-90 37 q-32 33 -32 87q0 51 32 83q36 37 90 37z" />
<glyph unicode="&#xfb02;" horiz-adv-x="1108" vert-adv-y="2457" d="M198 0v924h-137v137h137v59q0 175 66 275q98 147 371 147q144 0 317 -43v-1499h-180v1387q-85 10 -148 10q-155 0 -210 -86q-36 -56 -36 -156v-94h201v-137h-201v-924h-180z" />
<glyph unicode="&#xfb03;" horiz-adv-x="1696" vert-adv-y="2457" d="M780 1061v85q0 214 94 311q59 61 150 78q36 7 100 7h59v-151q-35 6 -55 6q-98 0 -137 -73q-31 -56 -31 -169v-94h336q143 0 203 25h43v-1086h-180v924h-402v-924h-180v924h-402v-924h-180v924h-137v137h137v61q0 214 94 311q58 60 150 78q36 7 101 7h59v-152q-36 6 -55 6 q-98 0 -138 -73q-31 -56 -31 -169v-69h402zM1448 1494q54 0 90 -37q32 -33 32 -85t-32 -85q-36 -37 -90 -37t-90 37q-32 33 -32 87q0 51 32 83q37 37 90 37z" />
<glyph unicode="&#xfb04;" horiz-adv-x="1690" vert-adv-y="2457" d="M780 1061v59q0 175 66 275q98 147 371 147q144 0 317 -43v-1499h-180v1387q-83 10 -148 10q-155 0 -210 -86q-36 -56 -36 -156v-94h201v-137h-201v-924h-180v924h-402v-924h-180v924h-137v137h137v61q0 214 94 311q58 60 150 78q36 7 101 7h59v-152q-36 6 -55 6 q-98 0 -138 -73q-31 -56 -31 -169v-69h402z" />
<glyph horiz-adv-x="375" vert-adv-y="2457" />
<glyph vert-adv-y="1126" />
<glyph horiz-adv-x="375" vert-adv-y="2457" />
<glyph horiz-adv-x="1024" vert-adv-y="2457" d="M319 -430l158 348h155l-106 -348h-207z" />
<glyph horiz-adv-x="211" vert-adv-y="2457" d="M-8 1171l66 377h196l-117 -377h-145z" />
<glyph horiz-adv-x="1024" vert-adv-y="2457" d="M227 1610l197 321h176l196 -321h-145l-139 186l-142 -186h-143z" />
<glyph horiz-adv-x="1061" vert-adv-y="2457" d="M709 772q131 -68 184 -128q84 -96 84 -254q0 -176 -96 -284q-121 -137 -349 -137q-202 0 -326 107q-122 104 -122 301q0 173 117 284q57 53 151 101q-94 56 -143 112q-84 96 -84 240q0 159 95 256q112 113 322 113q214 0 318 -118q76 -86 76 -234q0 -145 -94 -251 q-48 -55 -133 -108zM473 696q-78 -39 -122 -92q-77 -89 -77 -236q0 -119 64 -182q71 -70 198 -70q128 0 195 72q56 61 56 170t-48 171q-42 55 -152 112t-114 55zM592 834q65 47 98 92q55 76 55 190q0 111 -48 161q-57 61 -169 61q-105 0 -160 -54q-53 -52 -53 -146 q0 -98 49 -156q42 -50 133 -100q92 -51 95 -48z" />
<glyph horiz-adv-x="883" vert-adv-y="2457" d="M90 -90l582 1384h-684l12 152h842v-117l-563 -1419h-189z" />
<glyph horiz-adv-x="1051" vert-adv-y="2457" d="M289 786q136 109 297 109q194 0 295 -123q87 -106 87 -319q0 -209 -77 -318q-117 -166 -349 -166q-266 0 -376 227q-78 162 -78 429v120q0 392 228 594q146 130 367 174q73 15 179 23v-164q-267 -20 -402 -134q-131 -109 -161 -313q-8 -57 -10 -139zM289 651v-51 q0 -231 45 -342q28 -71 72 -103q54 -39 143 -39q147 0 196 119q26 62 26 215q0 185 -56 245q-53 55 -169 55q-139 0 -257 -99z" />
<glyph horiz-adv-x="1114" vert-adv-y="2457" d="M96 574v305q0 281 103 429q123 175 358 175t358 -175q103 -148 103 -429v-305q0 -282 -103 -430q-123 -175 -358 -175t-358 175q-103 148 -103 430zM817 600v253q0 250 -50 360q-56 125 -210 125t-210 -125q-50 -110 -50 -360v-253q0 -250 50 -361q56 -125 210 -125 t210 125q50 111 50 361z" />
<glyph horiz-adv-x="905" vert-adv-y="2457" d="M811 1294h-486l-49 -438q80 26 164 26q177 0 276 -105q95 -101 95 -299q0 -154 -56 -257q-107 -193 -394 -269q-110 -30 -312 -42v163q155 10 234 28q199 44 280 152q60 80 60 226q0 144 -63 198t-196 54q-109 0 -258 -41l86 756h635z" />
<glyph horiz-adv-x="1001" vert-adv-y="2457" d="M817 0h-184v319h-621v102l582 1103h180l-557 -1066h416v494l184 29v-523h164v-139h-164v-319z" />
<glyph horiz-adv-x="965" vert-adv-y="2457" d="M29 -90v164q160 8 245 25q218 43 313 146q77 83 77 243q0 109 -49 156q-49 48 -154 48q-84 0 -203 -26v145l60 14q157 34 217 83q84 67 84 215q0 106 -45 151q-51 51 -164 51q-143 0 -336 -94v162q186 90 357 90q376 0 376 -347q0 -171 -93 -256q-47 -44 -139 -85 q121 -18 181 -67q98 -79 98 -240q0 -230 -137 -362q-154 -149 -462 -196q-77 -12 -226 -20z" />
<glyph horiz-adv-x="983" vert-adv-y="2457" d="M41 0v117l33 33q221 219 302 307q196 214 256 362q43 105 43 226q0 149 -51 210q-59 70 -188 70q-166 0 -342 -119v168q165 109 357 109q419 0 419 -432q0 -164 -80 -313q-80 -150 -310 -378q-43 -42 -214 -206h621l-15 -154h-831z" />
<glyph horiz-adv-x="803" vert-adv-y="2457" d="M71 0v131h267v1132l-279 -108v137l367 164h98v-1325h246v-131h-699z" />
<glyph horiz-adv-x="979" vert-adv-y="2457" d="M942 10q-65 -24 -119 -24q-134 0 -172 133q-126 -152 -276 -152q-123 0 -199 77q-78 78 -78 228q0 156 71 227q54 54 162 78q81 19 314 38v116q0 104 -45 152q-42 46 -133 46q-129 0 -310 -81v152q169 79 328 79q340 0 340 -346v-526q0 -47 15 -63q15 -17 54 -17 q22 0 48 8v-125zM645 498l-27 -3q-195 -19 -248 -40q-65 -25 -83 -85q-11 -35 -11 -94q0 -170 146 -170q116 0 223 130v262zM508 1494q54 0 90 -37q32 -33 32 -85t-32 -85q-36 -37 -90 -37t-90 37q-32 33 -32 87q0 51 32 83q37 37 90 37z" />
<glyph horiz-adv-x="979" vert-adv-y="2457" d="M942 10q-65 -24 -119 -24q-134 0 -172 133q-126 -152 -276 -152q-123 0 -199 77q-78 78 -78 228q0 156 71 227q54 54 162 78q81 19 314 38v116q0 104 -45 152q-42 46 -133 46q-129 0 -310 -81v152q169 79 328 79q340 0 340 -346v-526q0 -47 15 -63q15 -17 54 -17 q22 0 48 8v-125zM645 498l-27 -3q-195 -19 -248 -40q-65 -25 -83 -85q-11 -35 -11 -94q0 -170 146 -170q116 0 223 130v262zM544 1200l98 348h176l-129 -348h-145zM243 1200l98 348h174l-129 -348h-143z" />
<glyph horiz-adv-x="1024" vert-adv-y="2457" d="M337 1866q50 0 82 -33q29 -30 29 -77q0 -48 -29 -78q-32 -33 -81 -33q-50 0 -82 33q-29 30 -29 79q0 46 29 76q33 33 81 33zM685 1866q50 0 82 -33q29 -30 29 -77q0 -48 -29 -78q-32 -33 -81 -33q-50 0 -82 33q-29 30 -29 79q0 46 29 76q33 33 81 33z" />
<glyph horiz-adv-x="1024" vert-adv-y="2457" d="M600 1548l-137 -348h-201l180 348h158z" />
<glyph horiz-adv-x="1032" vert-adv-y="2457" d="M68 0v154h150v512h-150v145h150v231q0 180 71 284q107 157 352 157q156 0 277 -64v-164q-140 72 -270 72q-244 0 -244 -258v-258h342v-145h-342v-512h557l-16 -154h-877z" />
<glyph horiz-adv-x="1024" vert-adv-y="2457" d="M512 1876q54 0 90 -36q32 -34 32 -86t-32 -85q-36 -37 -90 -37t-90 37q-32 33 -32 87q0 51 32 84q36 36 90 36z" />
<glyph horiz-adv-x="1024" vert-adv-y="2457" d="M512 1997q98 0 158 -60q53 -54 53 -137q0 -81 -53 -136q-60 -60 -157 -60q-99 0 -159 60q-53 55 -53 139q0 81 53 134q61 60 158 60zM512 1909q-52 0 -79 -36q-21 -28 -21 -71q0 -46 21 -74q27 -36 79 -36q51 0 79 36q21 28 21 72q0 46 -21 73q-28 36 -79 36z" />
<glyph horiz-adv-x="543" vert-adv-y="2457" d="M72 899v143h74q142 0 202 44h43v-1125q0 -358 -348 -397v145q85 16 129 78q39 55 39 164v948h-139z" />
<glyph horiz-adv-x="1083" vert-adv-y="2457" d="M180 0v1489h784v-154h-596v-518h496v-154h-496v-663h-188zM608 1876q54 0 90 -36q32 -34 32 -86t-32 -85q-36 -37 -90 -37t-90 37q-32 33 -32 87q0 51 32 84q37 36 90 36z" />
<glyph horiz-adv-x="975" vert-adv-y="2457" d="M824 1249q-118 55 -217 74l-64 -516q134 -85 192 -134q155 -129 155 -314q0 -211 -178 -321q-84 -52 -205 -64q-24 -2 -66 -5l-31 -262h-123l33 270q-130 19 -250 76v164q139 -77 268 -94l70 563q-131 87 -188 140q-132 122 -132 290q0 188 145 288q104 71 271 76l21 158 h121l-21 -168q110 -17 199 -59v-162zM459 117q249 24 249 233q0 107 -83 184q-34 31 -104 78zM486 1333q-89 -6 -141 -39q-85 -53 -85 -161q0 -100 65 -168q34 -36 106 -85z" />
<glyph horiz-adv-x="920" vert-adv-y="2457" d="M430 -18l-90 -275h-125l103 309q-232 127 -232 461v111q0 255 145 386q115 105 304 105q60 0 130 -10l66 197h125l-76 -225q27 -8 45 -17v-162q-40 19 -92 35l-256 -772q26 -5 57 -5q111 0 202 34q29 11 106 47v-154q-71 -34 -110 -47q-87 -29 -191 -29q-55 0 -111 11z M618 921q-56 7 -82 7q-138 0 -197 -76q-58 -76 -58 -248v-145q0 -112 22 -182q20 -65 66 -107z" />
<glyph horiz-adv-x="788" vert-adv-y="2457" d="M125 676v137h182l27 244q19 177 94 276q86 113 264 113h115v-147q-48 8 -83 8q-108 0 -156 -62q-41 -51 -54 -174l-28 -258h229v-137h-246l-117 -1090h-182l121 1090h-166z" />
<glyph horiz-adv-x="1032" vert-adv-y="2457" d="M45 498v131h141v182h-141v131h143q31 541 509 541q137 0 268 -43v-162q-155 53 -267 53q-187 0 -256 -118q-58 -100 -64 -271h365v-131h-367v-182h367v-131h-365q12 -148 43 -220q40 -92 124 -129q59 -26 155 -26q90 0 175 27q37 11 108 41v-160q-138 -62 -295 -62 q-304 0 -420 210q-68 123 -80 319h-143z" />
<glyph horiz-adv-x="1204" vert-adv-y="2457" d="M1153 0h-205l-129 434h-465l-133 -434h-172l485 1497h144zM772 588l-182 616l-189 -616h371zM602 1876q54 0 90 -36q32 -34 32 -86t-32 -85q-36 -37 -90 -37t-90 37q-32 33 -32 87q0 51 32 84q36 36 90 36z" />
<glyph horiz-adv-x="1292" vert-adv-y="2457" d="M180 0v1489h410q602 0 602 -680v-123q0 -351 -172 -529q-152 -157 -420 -157h-420zM368 150h219q204 0 302 122q102 126 102 400v145q0 295 -113 416q-96 102 -291 102h-219v-1185zM865 1894q-8 -127 -75 -194q-71 -70 -185 -70q-116 0 -188 71q-68 68 -75 193h136 q13 -127 126 -127q111 0 128 127h133z" />
<glyph horiz-adv-x="1024" vert-adv-y="2457" d="M432 1612l129 319h201l-172 -319h-158z" />
<glyph horiz-adv-x="1024" vert-adv-y="2457" d="M617 1612h-158l-174 319h203z" />
<glyph horiz-adv-x="1051" vert-adv-y="2457" d="M760 666q-136 -109 -297 -109q-195 0 -296 123q-87 106 -87 319q0 209 77 318q117 166 350 166q265 0 376 -227q78 -162 78 -429v-120q0 -392 -237 -594q-152 -130 -381 -174q-77 -15 -187 -23v164q282 20 424 134q137 109 169 313q9 58 11 139zM760 801v51 q0 223 -43 336q-28 75 -75 109q-53 39 -143 39q-147 0 -196 -119q-26 -63 -26 -215q0 -185 56 -245q53 -55 169 -55q139 0 258 99z" />
<glyph horiz-adv-x="1024" vert-adv-y="2457" d="M424 1610l-197 321h143l142 -186l139 186h145l-196 -321h-176z" />
<glyph horiz-adv-x="1024" vert-adv-y="2457" d="M773 1894q-7 -127 -75 -194q-71 -70 -185 -70q-115 0 -187 71q-68 68 -75 193h135q13 -127 127 -127q111 0 127 127h133z" />
<glyph horiz-adv-x="1024" vert-adv-y="2457" d="M296 1630l-84 64q93 159 205 159q43 0 111 -29q58 -24 88 -24q55 0 110 76l84 -61q-89 -162 -201 -162q-44 0 -113 28q-60 25 -92 25q-53 0 -108 -76z" />
<glyph horiz-adv-x="1024" vert-adv-y="2457" d="M589 1612l90 319h176l-121 -319h-145zM288 1612l90 319h174l-121 -319h-143z" />
<glyph horiz-adv-x="1024" vert-adv-y="2457" d="M345 -348l133 348h148l-97 -348h-184z" />
<glyph horiz-adv-x="1024" vert-adv-y="2457" d="M736 -408q-58 -18 -104 -18q-93 0 -154 47q-64 48 -64 137q0 111 117 242h109q-72 -128 -72 -199q0 -92 91 -92q30 0 77 15v-132z" />
<glyph horiz-adv-x="1024" vert-adv-y="2457" d="M265 1671v152h494v-152h-494z" />
<glyph horiz-adv-x="1024" vert-adv-y="2457" d="M319 -430l158 348h155l-106 -348h-207z" />
<glyph horiz-adv-x="1024" vert-adv-y="2457" d="M398 1171l66 377h196l-117 -377h-145z" />
<glyph horiz-adv-x="983" vert-adv-y="2457" d="M913 399v-131h-328v-268h-188v268h-328v131h328v160h-328v131h312l-373 756h200l295 -627l293 627h180l-371 -756h308v-131h-328v-160h328z" />
</font>
</defs>
</svg>
